G04 Layer_Color=16711935*
%FSLAX24Y24*%
%MOIN*%
G70*
G01*
G75*
%ADD40C,0.0240*%
%ADD84C,0.0159*%
%ADD88C,0.0789*%
%ADD89O,0.0749X0.0552*%
%ADD90O,0.0631X0.0474*%
%ADD91R,0.0474X0.0474*%
%ADD92R,0.0946X0.0789*%
%ADD93R,0.0592X0.0198*%
D40*
X17630Y1511D02*
G03*
X17630Y1511I-110J0D01*
G01*
Y1489D02*
G03*
X17630Y1489I-110J0D01*
G01*
X14600D02*
G03*
X14600Y1489I-110J0D01*
G01*
Y1511D02*
G03*
X14600Y1511I-110J0D01*
G01*
D84*
X17520Y1633D02*
D03*
Y1367D02*
D03*
X14490D02*
D03*
Y1633D02*
D03*
D88*
X500Y-3000D02*
D03*
X1500D02*
D03*
X2500D02*
D03*
X3500D02*
D03*
X4500D02*
D03*
X5500D02*
D03*
X6500D02*
D03*
X7500D02*
D03*
X8500D02*
D03*
X9500D02*
D03*
X10500D02*
D03*
X11500D02*
D03*
X12500D02*
D03*
X13500D02*
D03*
X14500D02*
D03*
X15500D02*
D03*
X16500D02*
D03*
X17500D02*
D03*
Y3000D02*
D03*
X16500D02*
D03*
X15500D02*
D03*
X14500D02*
D03*
X13500D02*
D03*
X12500D02*
D03*
X11500D02*
D03*
X10500D02*
D03*
X9500D02*
D03*
X8500D02*
D03*
X7500D02*
D03*
X6500D02*
D03*
X5500D02*
D03*
X4500D02*
D03*
X3500D02*
D03*
X2500D02*
D03*
X1500D02*
D03*
X500D02*
D03*
D89*
X703Y1073D02*
D03*
Y-1073D02*
D03*
D90*
X1896Y955D02*
D03*
Y-955D02*
D03*
D91*
X7550Y600D02*
D03*
X9650Y-700D02*
D03*
Y591D02*
D03*
X8950Y-700D02*
D03*
X7550D02*
D03*
Y0D02*
D03*
X8950Y591D02*
D03*
X8250Y600D02*
D03*
X7550Y-1400D02*
D03*
D92*
X3720Y-1732D02*
D03*
Y1535D02*
D03*
D93*
X5000Y787D02*
D03*
Y591D02*
D03*
Y394D02*
D03*
Y197D02*
D03*
Y0D02*
D03*
Y-197D02*
D03*
Y-394D02*
D03*
Y-591D02*
D03*
Y-787D02*
D03*
Y-984D02*
D03*
M02*
