M48
;Layer_Color=9474304
;FILE_FORMAT=2:4
INCH
;TYPE=PLATED
T1F00S00C0.0100
T4F00S00C0.0354
%
T01
X021250Y-003250
X021750
Y-002750
Y-002250
X021500Y-001993
X021250Y-002500
X021690Y-000450
X020990
X020290
X019590
X018000Y-000394
X017220Y-000800
X017023Y-001614
X017640Y-001621
X018494Y-001614
X018750Y-002750
Y-003250
X019250
X019750
X020250
X020750
Y-002500
X020270Y-002520
X020069Y-002200
X020266Y-002000
X019872
X019600Y-002140
X019750Y-002750
X019250
X018250Y-003250
X015970Y-002230
X016350Y-001700
X014470Y-001880
X013830Y-002030
X013000Y-001840
Y-002250
Y-001250
X013250Y-000700
X012250Y-000955
X010400Y-000700
X010100
X009300
X008200Y-000817
Y-000290
X006920Y-000500
X007050Y-000710
X007100Y-001550
X005700Y-001500
X008500Y-002340
X009850Y-001695
X020659Y-002000
X021040
X004620Y-001480
X004450Y-000800
X004160Y-000560
X003400Y-000949
X002700Y000200
X002220Y-000027
X002450Y000662
X003400Y000955
X005050Y001181
X005250Y002000
X004400Y002350
X002200Y001860
X005690Y002420
X005950Y002250
X006700
X006000Y001350
X006350Y000787
X006900Y000810
X007100Y000050
X006920Y-000250
X006500Y000040
X007760Y001550
X008749Y002046
X008784Y000966
X009673Y000950
X009493Y001250
X010400Y000331
X010795
X011200
X011750Y001340
X012500Y001800
X013000Y002230
X013750Y000000
X015190Y000030
X015690Y000214
X016800Y000230
X017730Y000140
X017942Y001850
X017500Y001990
X017000
X016261Y001412
X015090Y000997
X014810Y000970
X018494Y001614
X018500Y002750
Y003250
X019000
X019500
X020000
X020500
X021000
Y002750
X021053Y002250
X020856Y002006
X020470
X020070
X020000Y002296
X019500Y002750
X019000
X018000
Y003250
X019590Y000450
X020290
X021040
X019951Y000000
X021368
X021690Y000450
X021750Y002000
Y002500
Y003000
X021500Y003250
X021250Y001996
T04
X006500Y-003000
X007500
X008500
X009500
X010500
X011500
X012500
X013500
X014500
X015500
X016500
X017500
X005500
X004500
X003500
X002500
X001500
X000500
Y003000
X001500
X002500
X003500
X004500
X005500
X006500
X007500
X008500
X009500
X010500
X011500
X012500
X013500
X014500
X015500
X016500
X017500
M30
