G04 Layer_Color=2752767*
%FSLAX24Y24*%
%MOIN*%
G70*
G01*
G75*
%ADD42C,0.0100*%
%ADD43C,0.0150*%
%ADD96C,0.0020*%
%ADD97C,0.0160*%
%ADD98C,0.0140*%
D42*
X690Y22316D02*
G03*
X690Y22316I-277J0D01*
G01*
X136Y25774D02*
X413Y25913D01*
X690Y25774D01*
X551Y26051D02*
X690Y25774D01*
X551Y26051D02*
X690Y26328D01*
X413Y26189D02*
X690Y26328D01*
X136D02*
X413Y26189D01*
X136Y26328D02*
X275Y26051D01*
X136Y25774D02*
X275Y26051D01*
X136Y24529D02*
X690D01*
Y25083D01*
X136D02*
X690D01*
X136Y24529D02*
Y25083D01*
X413Y23284D02*
X690Y23838D01*
X136D02*
X690D01*
X136D02*
X413Y23284D01*
X73698Y26023D02*
X74030D01*
X73698Y24778D02*
X74030D01*
X73698Y23284D02*
X73864D01*
X73781D01*
Y23782D01*
X73698Y23699D01*
X74445Y23782D02*
X74113D01*
Y23533D01*
X74279Y23616D01*
X74362D01*
X74445Y23533D01*
Y23367D01*
X74362Y23284D01*
X74196D01*
X74113Y23367D01*
X74611Y23284D02*
Y23367D01*
X74694D01*
Y23284D01*
X74611D01*
X75026Y23782D02*
X75357D01*
Y23699D01*
X75026Y23367D01*
Y23284D01*
X75855Y23782D02*
X75523D01*
Y23533D01*
X75689Y23616D01*
X75772D01*
X75855Y23533D01*
Y23367D01*
X75772Y23284D01*
X75606D01*
X75523Y23367D01*
X76021Y23284D02*
Y23616D01*
X76104D01*
X76187Y23533D01*
Y23284D01*
Y23533D01*
X76270Y23616D01*
X76353Y23533D01*
Y23284D01*
X76519D02*
X76685D01*
X76602D01*
Y23616D01*
X76519D01*
X76934Y23284D02*
X77100D01*
X77017D01*
Y23782D01*
X76934D01*
X78013Y23284D02*
X77847Y23450D01*
Y23616D01*
X78013Y23782D01*
X78262Y23699D02*
X78345Y23782D01*
X78511D01*
X78594Y23699D01*
Y23367D01*
X78511Y23284D01*
X78345D01*
X78262Y23367D01*
Y23699D01*
X78760Y23284D02*
Y23367D01*
X78843D01*
Y23284D01*
X78760D01*
X79423D02*
Y23782D01*
X79174Y23533D01*
X79506D01*
X79672Y23699D02*
X79755Y23782D01*
X79921D01*
X80004Y23699D01*
Y23367D01*
X79921Y23284D01*
X79755D01*
X79672Y23367D01*
Y23699D01*
X80170D02*
X80253Y23782D01*
X80419D01*
X80502Y23699D01*
Y23367D01*
X80419Y23284D01*
X80253D01*
X80170Y23367D01*
Y23699D01*
X80668Y23284D02*
Y23616D01*
X80751D01*
X80834Y23533D01*
Y23284D01*
Y23533D01*
X80917Y23616D01*
X81000Y23533D01*
Y23284D01*
X81166D02*
Y23616D01*
X81249D01*
X81332Y23533D01*
Y23284D01*
Y23533D01*
X81415Y23616D01*
X81498Y23533D01*
Y23284D01*
X81664D02*
X81830Y23450D01*
Y23616D01*
X81664Y23782D01*
X73698Y22039D02*
X73864D01*
X73781D01*
Y22537D01*
X73698Y22454D01*
X74113Y22122D02*
X74196Y22039D01*
X74362D01*
X74445Y22122D01*
Y22454D01*
X74362Y22537D01*
X74196D01*
X74113Y22454D01*
Y22371D01*
X74196Y22288D01*
X74445D01*
X74611Y22039D02*
Y22122D01*
X74694D01*
Y22039D01*
X74611D01*
X75357Y22537D02*
X75191Y22454D01*
X75026Y22288D01*
Y22122D01*
X75109Y22039D01*
X75274D01*
X75357Y22122D01*
Y22205D01*
X75274Y22288D01*
X75026D01*
X75523Y22122D02*
X75606Y22039D01*
X75772D01*
X75855Y22122D01*
Y22454D01*
X75772Y22537D01*
X75606D01*
X75523Y22454D01*
Y22371D01*
X75606Y22288D01*
X75855D01*
X76021Y22039D02*
Y22371D01*
X76104D01*
X76187Y22288D01*
Y22039D01*
Y22288D01*
X76270Y22371D01*
X76353Y22288D01*
Y22039D01*
X76519D02*
X76685D01*
X76602D01*
Y22371D01*
X76519D01*
X76934Y22039D02*
X77100D01*
X77017D01*
Y22537D01*
X76934D01*
X78013Y22039D02*
X77847Y22205D01*
Y22371D01*
X78013Y22537D01*
X78262Y22454D02*
X78345Y22537D01*
X78511D01*
X78594Y22454D01*
Y22122D01*
X78511Y22039D01*
X78345D01*
X78262Y22122D01*
Y22454D01*
X78760Y22039D02*
Y22122D01*
X78843D01*
Y22039D01*
X78760D01*
X79506Y22537D02*
X79174D01*
Y22288D01*
X79340Y22371D01*
X79423D01*
X79506Y22288D01*
Y22122D01*
X79423Y22039D01*
X79257D01*
X79174Y22122D01*
X79672Y22454D02*
X79755Y22537D01*
X79921D01*
X80004Y22454D01*
Y22122D01*
X79921Y22039D01*
X79755D01*
X79672Y22122D01*
Y22454D01*
X80170D02*
X80253Y22537D01*
X80419D01*
X80502Y22454D01*
Y22122D01*
X80419Y22039D01*
X80253D01*
X80170Y22122D01*
Y22454D01*
X80668Y22039D02*
Y22371D01*
X80751D01*
X80834Y22288D01*
Y22039D01*
Y22288D01*
X80917Y22371D01*
X81000Y22288D01*
Y22039D01*
X81166D02*
Y22371D01*
X81249D01*
X81332Y22288D01*
Y22039D01*
Y22288D01*
X81415Y22371D01*
X81498Y22288D01*
Y22039D01*
X81664D02*
X81830Y22205D01*
Y22371D01*
X81664Y22537D01*
X64619Y26023D02*
X64951D01*
X64619Y24778D02*
X64951D01*
X64868Y23284D02*
Y23782D01*
X64619Y23533D01*
X64951D01*
X65117Y23284D02*
X65283D01*
X65200D01*
Y23782D01*
X65117Y23699D01*
X65532Y23284D02*
Y23367D01*
X65615D01*
Y23284D01*
X65532D01*
X65947Y23699D02*
X66030Y23782D01*
X66196D01*
X66279Y23699D01*
Y23616D01*
X66196Y23533D01*
X66113D01*
X66196D01*
X66279Y23450D01*
Y23367D01*
X66196Y23284D01*
X66030D01*
X65947Y23367D01*
X66693Y23284D02*
Y23782D01*
X66445Y23533D01*
X66776D01*
X66942Y23284D02*
Y23616D01*
X67025D01*
X67108Y23533D01*
Y23284D01*
Y23533D01*
X67191Y23616D01*
X67274Y23533D01*
Y23284D01*
X67440D02*
X67606D01*
X67523D01*
Y23616D01*
X67440D01*
X67855Y23284D02*
X68021D01*
X67938D01*
Y23782D01*
X67855D01*
X68934Y23284D02*
X68768Y23450D01*
Y23616D01*
X68934Y23782D01*
X69183Y23284D02*
X69349D01*
X69266D01*
Y23782D01*
X69183Y23699D01*
X69598Y23284D02*
Y23367D01*
X69681D01*
Y23284D01*
X69598D01*
X70013Y23699D02*
X70096Y23782D01*
X70262D01*
X70344Y23699D01*
Y23367D01*
X70262Y23284D01*
X70096D01*
X70013Y23367D01*
Y23699D01*
X70842Y23782D02*
X70510D01*
Y23533D01*
X70676Y23616D01*
X70759D01*
X70842Y23533D01*
Y23367D01*
X70759Y23284D01*
X70593D01*
X70510Y23367D01*
X71008Y23699D02*
X71091Y23782D01*
X71257D01*
X71340Y23699D01*
Y23367D01*
X71257Y23284D01*
X71091D01*
X71008Y23367D01*
Y23699D01*
X71506Y23284D02*
Y23616D01*
X71589D01*
X71672Y23533D01*
Y23284D01*
Y23533D01*
X71755Y23616D01*
X71838Y23533D01*
Y23284D01*
X72004D02*
Y23616D01*
X72087D01*
X72170Y23533D01*
Y23284D01*
Y23533D01*
X72253Y23616D01*
X72336Y23533D01*
Y23284D01*
X72502D02*
X72668Y23450D01*
Y23616D01*
X72502Y23782D01*
X64868Y22039D02*
Y22537D01*
X64619Y22288D01*
X64951D01*
X65117Y22537D02*
X65449D01*
Y22454D01*
X65117Y22122D01*
Y22039D01*
X65615D02*
Y22122D01*
X65698D01*
Y22039D01*
X65615D01*
X66362D02*
X66030D01*
X66362Y22371D01*
Y22454D01*
X66279Y22537D01*
X66113D01*
X66030Y22454D01*
X66776Y22039D02*
Y22537D01*
X66527Y22288D01*
X66859D01*
X67025Y22039D02*
Y22371D01*
X67108D01*
X67191Y22288D01*
Y22039D01*
Y22288D01*
X67274Y22371D01*
X67357Y22288D01*
Y22039D01*
X67523D02*
X67689D01*
X67606D01*
Y22371D01*
X67523D01*
X67938Y22039D02*
X68104D01*
X68021D01*
Y22537D01*
X67938D01*
X69017Y22039D02*
X68851Y22205D01*
Y22371D01*
X69017Y22537D01*
X69266Y22039D02*
X69432D01*
X69349D01*
Y22537D01*
X69266Y22454D01*
X69681Y22039D02*
Y22122D01*
X69764D01*
Y22039D01*
X69681D01*
X70427D02*
X70096D01*
X70427Y22371D01*
Y22454D01*
X70344Y22537D01*
X70179D01*
X70096Y22454D01*
X70593D02*
X70676Y22537D01*
X70842D01*
X70925Y22454D01*
Y22122D01*
X70842Y22039D01*
X70676D01*
X70593Y22122D01*
Y22454D01*
X71091D02*
X71174Y22537D01*
X71340D01*
X71423Y22454D01*
Y22122D01*
X71340Y22039D01*
X71174D01*
X71091Y22122D01*
Y22454D01*
X71589Y22039D02*
Y22371D01*
X71672D01*
X71755Y22288D01*
Y22039D01*
Y22288D01*
X71838Y22371D01*
X71921Y22288D01*
Y22039D01*
X72087D02*
Y22371D01*
X72170D01*
X72253Y22288D01*
Y22039D01*
Y22288D01*
X72336Y22371D01*
X72419Y22288D01*
Y22039D01*
X72585D02*
X72751Y22205D01*
Y22371D01*
X72585Y22537D01*
X54710Y26106D02*
X54876Y25774D01*
X55042Y26106D01*
X55457Y25774D02*
Y26272D01*
X55208Y26023D01*
X55540D01*
X56038Y26272D02*
X55872Y26189D01*
X55706Y26023D01*
Y25857D01*
X55789Y25774D01*
X55955D01*
X56038Y25857D01*
Y25940D01*
X55955Y26023D01*
X55706D01*
X56204Y26272D02*
Y25774D01*
Y26023D01*
X56287Y26106D01*
X56453D01*
X56536Y26023D01*
Y25774D01*
X57034D02*
X56702D01*
X57034Y26106D01*
Y26189D01*
X56951Y26272D01*
X56785D01*
X56702Y26189D01*
X57532Y26272D02*
X57200D01*
Y26023D01*
X57366Y26106D01*
X57449D01*
X57532Y26023D01*
Y25857D01*
X57449Y25774D01*
X57283D01*
X57200Y25857D01*
X57698Y25774D02*
Y26106D01*
X57781D01*
X57863Y26023D01*
Y25774D01*
Y26023D01*
X57946Y26106D01*
X58029Y26023D01*
Y25774D01*
X58195Y26189D02*
X58278Y26272D01*
X58444D01*
X58527Y26189D01*
Y25857D01*
X58444Y25774D01*
X58278D01*
X58195Y25857D01*
Y26189D01*
X58693Y25774D02*
Y26106D01*
X58776D01*
X58859Y26023D01*
Y25774D01*
Y26023D01*
X58942Y26106D01*
X59025Y26023D01*
Y25774D01*
X59191Y26106D02*
X59523Y25774D01*
X59357Y25940D01*
X59523Y26106D01*
X59191Y25774D01*
X59689Y26189D02*
X59772Y26272D01*
X59938D01*
X60021Y26189D01*
Y25857D01*
X59938Y25774D01*
X59772D01*
X59689Y25857D01*
Y26189D01*
X55042Y24861D02*
X54793D01*
X54710Y24778D01*
Y24612D01*
X54793Y24529D01*
X55042D01*
X55208D02*
X55374D01*
X55291D01*
Y25027D01*
X55208Y24944D01*
X55623D02*
X55706Y25027D01*
X55872D01*
X55955Y24944D01*
Y24861D01*
X55872Y24778D01*
X55955Y24695D01*
Y24612D01*
X55872Y24529D01*
X55706D01*
X55623Y24612D01*
Y24695D01*
X55706Y24778D01*
X55623Y24861D01*
Y24944D01*
X55706Y24778D02*
X55872D01*
X56121Y24944D02*
X56204Y25027D01*
X56370D01*
X56453Y24944D01*
Y24612D01*
X56370Y24529D01*
X56204D01*
X56121Y24612D01*
Y24944D01*
X56619Y25027D02*
Y24529D01*
Y24778D01*
X56702Y24861D01*
X56868D01*
X56951Y24778D01*
Y24529D01*
X57117Y24612D02*
X57200Y24529D01*
X57366D01*
X57449Y24612D01*
Y24944D01*
X57366Y25027D01*
X57200D01*
X57117Y24944D01*
Y24861D01*
X57200Y24778D01*
X57449D01*
X57615Y24944D02*
X57698Y25027D01*
X57863D01*
X57946Y24944D01*
Y24612D01*
X57863Y24529D01*
X57698D01*
X57615Y24612D01*
Y24944D01*
X54710Y23616D02*
Y23284D01*
Y23450D01*
X54793Y23533D01*
X54876Y23616D01*
X54959D01*
X55208Y23284D02*
X55374D01*
X55291D01*
Y23782D01*
X55208Y23699D01*
X55872Y23284D02*
Y23782D01*
X55623Y23533D01*
X55955D01*
X56121Y23699D02*
X56204Y23782D01*
X56370D01*
X56453Y23699D01*
Y23367D01*
X56370Y23284D01*
X56204D01*
X56121Y23367D01*
Y23699D01*
X56619Y23201D02*
X56951D01*
X57117Y23284D02*
X57283D01*
X57200D01*
Y23782D01*
X57117Y23699D01*
X57532D02*
X57615Y23782D01*
X57781D01*
X57863Y23699D01*
Y23367D01*
X57781Y23284D01*
X57615D01*
X57532Y23367D01*
Y23699D01*
X58029D02*
X58112Y23782D01*
X58278D01*
X58361Y23699D01*
Y23367D01*
X58278Y23284D01*
X58112D01*
X58029Y23367D01*
Y23699D01*
X58527Y23782D02*
Y23284D01*
Y23533D01*
X58610Y23616D01*
X58776D01*
X58859Y23533D01*
Y23284D01*
X59357Y23782D02*
X59191Y23699D01*
X59025Y23533D01*
Y23367D01*
X59108Y23284D01*
X59274D01*
X59357Y23367D01*
Y23450D01*
X59274Y23533D01*
X59025D01*
X59855Y23782D02*
X59523D01*
Y23533D01*
X59689Y23616D01*
X59772D01*
X59855Y23533D01*
Y23367D01*
X59772Y23284D01*
X59606D01*
X59523Y23367D01*
X60021Y23201D02*
X60353D01*
X60519Y23284D02*
X60685D01*
X60602D01*
Y23782D01*
X60519Y23699D01*
X60934D02*
X61017Y23782D01*
X61183D01*
X61266Y23699D01*
Y23367D01*
X61183Y23284D01*
X61017D01*
X60934Y23367D01*
Y23699D01*
X61763Y23782D02*
X61432D01*
Y23533D01*
X61598Y23616D01*
X61680D01*
X61763Y23533D01*
Y23367D01*
X61680Y23284D01*
X61515D01*
X61432Y23367D01*
X61929Y23616D02*
Y23284D01*
Y23450D01*
X62012Y23533D01*
X62095Y23616D01*
X62178D01*
X62427Y23284D02*
X62593D01*
X62510D01*
Y23782D01*
X62427Y23699D01*
X62842D02*
X62925Y23782D01*
X63091D01*
X63174Y23699D01*
Y23367D01*
X63091Y23284D01*
X62925D01*
X62842Y23367D01*
Y23699D01*
X63340D02*
X63423Y23782D01*
X63589D01*
X63672Y23699D01*
Y23367D01*
X63589Y23284D01*
X63423D01*
X63340Y23367D01*
Y23699D01*
X54710Y22371D02*
Y22039D01*
Y22205D01*
X54793Y22288D01*
X54876Y22371D01*
X54959D01*
X55208Y22039D02*
X55374D01*
X55291D01*
Y22537D01*
X55208Y22454D01*
X55623Y22537D02*
X55955D01*
Y22454D01*
X55623Y22122D01*
Y22039D01*
X56121Y22454D02*
X56204Y22537D01*
X56370D01*
X56453Y22454D01*
Y22122D01*
X56370Y22039D01*
X56204D01*
X56121Y22122D01*
Y22454D01*
X56619Y21956D02*
X56951D01*
X57117Y22039D02*
X57283D01*
X57200D01*
Y22537D01*
X57117Y22454D01*
X57863Y22039D02*
X57532D01*
X57863Y22371D01*
Y22454D01*
X57781Y22537D01*
X57615D01*
X57532Y22454D01*
X58029D02*
X58112Y22537D01*
X58278D01*
X58361Y22454D01*
Y22122D01*
X58278Y22039D01*
X58112D01*
X58029Y22122D01*
Y22454D01*
X58527Y22537D02*
Y22039D01*
Y22288D01*
X58610Y22371D01*
X58776D01*
X58859Y22288D01*
Y22039D01*
X59025Y22537D02*
X59357D01*
Y22454D01*
X59025Y22122D01*
Y22039D01*
X59523Y22454D02*
X59606Y22537D01*
X59772D01*
X59855Y22454D01*
Y22122D01*
X59772Y22039D01*
X59606D01*
X59523Y22122D01*
Y22454D01*
X60021Y21956D02*
X60353D01*
X60519Y22039D02*
X60685D01*
X60602D01*
Y22537D01*
X60519Y22454D01*
X61266Y22039D02*
X60934D01*
X61266Y22371D01*
Y22454D01*
X61183Y22537D01*
X61017D01*
X60934Y22454D01*
X61432D02*
X61515Y22537D01*
X61680D01*
X61763Y22454D01*
Y22122D01*
X61680Y22039D01*
X61515D01*
X61432Y22122D01*
Y22454D01*
X61929Y22371D02*
Y22039D01*
Y22205D01*
X62012Y22288D01*
X62095Y22371D01*
X62178D01*
X62427Y22039D02*
X62593D01*
X62510D01*
Y22537D01*
X62427Y22454D01*
X62842D02*
X62925Y22537D01*
X63091D01*
X63174Y22454D01*
Y22122D01*
X63091Y22039D01*
X62925D01*
X62842Y22122D01*
Y22454D01*
X63340D02*
X63423Y22537D01*
X63589D01*
X63672Y22454D01*
Y22122D01*
X63589Y22039D01*
X63423D01*
X63340Y22122D01*
Y22454D01*
X48465Y25774D02*
Y26272D01*
X48714D01*
X48797Y26189D01*
Y26023D01*
X48714Y25940D01*
X48465D01*
X48631D02*
X48797Y25774D01*
X49046D02*
X49212D01*
X49295Y25857D01*
Y26023D01*
X49212Y26106D01*
X49046D01*
X48963Y26023D01*
Y25857D01*
X49046Y25774D01*
X49461Y26106D02*
Y25857D01*
X49544Y25774D01*
X49793D01*
Y26106D01*
X49959Y25774D02*
Y26106D01*
X50208D01*
X50291Y26023D01*
Y25774D01*
X50789Y26272D02*
Y25774D01*
X50540D01*
X50457Y25857D01*
Y26023D01*
X50540Y26106D01*
X50789D01*
X51204Y25774D02*
X51038D01*
X50955Y25857D01*
Y26023D01*
X51038Y26106D01*
X51204D01*
X51287Y26023D01*
Y25940D01*
X50955D01*
X51785Y26272D02*
Y25774D01*
X51536D01*
X51453Y25857D01*
Y26023D01*
X51536Y26106D01*
X51785D01*
X48465Y24529D02*
Y25027D01*
X48714D01*
X48797Y24944D01*
Y24778D01*
X48714Y24695D01*
X48465D01*
X48631D02*
X48797Y24529D01*
X49046D02*
X49212D01*
X49295Y24612D01*
Y24778D01*
X49212Y24861D01*
X49046D01*
X48963Y24778D01*
Y24612D01*
X49046Y24529D01*
X49461Y24861D02*
Y24612D01*
X49544Y24529D01*
X49793D01*
Y24861D01*
X49959Y24529D02*
Y24861D01*
X50208D01*
X50291Y24778D01*
Y24529D01*
X50789Y25027D02*
Y24529D01*
X50540D01*
X50457Y24612D01*
Y24778D01*
X50540Y24861D01*
X50789D01*
X51204Y24529D02*
X51038D01*
X50955Y24612D01*
Y24778D01*
X51038Y24861D01*
X51204D01*
X51287Y24778D01*
Y24695D01*
X50955D01*
X51785Y25027D02*
Y24529D01*
X51536D01*
X51453Y24612D01*
Y24778D01*
X51536Y24861D01*
X51785D01*
X48465Y23284D02*
Y23782D01*
X48714D01*
X48797Y23699D01*
Y23533D01*
X48714Y23450D01*
X48465D01*
X48631D02*
X48797Y23284D01*
X49046D02*
X49212D01*
X49295Y23367D01*
Y23533D01*
X49212Y23616D01*
X49046D01*
X48963Y23533D01*
Y23367D01*
X49046Y23284D01*
X49461Y23616D02*
Y23367D01*
X49544Y23284D01*
X49793D01*
Y23616D01*
X49959Y23284D02*
Y23616D01*
X50208D01*
X50291Y23533D01*
Y23284D01*
X50789Y23782D02*
Y23284D01*
X50540D01*
X50457Y23367D01*
Y23533D01*
X50540Y23616D01*
X50789D01*
X51204Y23284D02*
X51038D01*
X50955Y23367D01*
Y23533D01*
X51038Y23616D01*
X51204D01*
X51287Y23533D01*
Y23450D01*
X50955D01*
X51785Y23782D02*
Y23284D01*
X51536D01*
X51453Y23367D01*
Y23533D01*
X51536Y23616D01*
X51785D01*
X48465Y22039D02*
Y22537D01*
X48714D01*
X48797Y22454D01*
Y22288D01*
X48714Y22205D01*
X48465D01*
X48631D02*
X48797Y22039D01*
X49046D02*
X49212D01*
X49295Y22122D01*
Y22288D01*
X49212Y22371D01*
X49046D01*
X48963Y22288D01*
Y22122D01*
X49046Y22039D01*
X49461Y22371D02*
Y22122D01*
X49544Y22039D01*
X49793D01*
Y22371D01*
X49959Y22039D02*
Y22371D01*
X50208D01*
X50291Y22288D01*
Y22039D01*
X50789Y22537D02*
Y22039D01*
X50540D01*
X50457Y22122D01*
Y22288D01*
X50540Y22371D01*
X50789D01*
X51204Y22039D02*
X51038D01*
X50955Y22122D01*
Y22288D01*
X51038Y22371D01*
X51204D01*
X51287Y22288D01*
Y22205D01*
X50955D01*
X51785Y22537D02*
Y22039D01*
X51536D01*
X51453Y22122D01*
Y22288D01*
X51536Y22371D01*
X51785D01*
X43515Y26272D02*
Y25940D01*
X43681Y25774D01*
X43847Y25940D01*
Y26272D01*
X44013Y25774D02*
X44179D01*
X44096D01*
Y26106D01*
X44013D01*
X44511D02*
X44677D01*
X44760Y26023D01*
Y25774D01*
X44511D01*
X44428Y25857D01*
X44511Y25940D01*
X44760D01*
X43515Y24529D02*
Y25027D01*
X43764D01*
X43847Y24944D01*
Y24778D01*
X43764Y24695D01*
X43515D01*
X44096Y24861D02*
X44262D01*
X44345Y24778D01*
Y24529D01*
X44096D01*
X44013Y24612D01*
X44096Y24695D01*
X44345D01*
X44843Y25027D02*
Y24529D01*
X44594D01*
X44511Y24612D01*
Y24778D01*
X44594Y24861D01*
X44843D01*
X43515Y23284D02*
Y23782D01*
X43764D01*
X43847Y23699D01*
Y23533D01*
X43764Y23450D01*
X43515D01*
X44096Y23616D02*
X44262D01*
X44345Y23533D01*
Y23284D01*
X44096D01*
X44013Y23367D01*
X44096Y23450D01*
X44345D01*
X44843Y23782D02*
Y23284D01*
X44594D01*
X44511Y23367D01*
Y23533D01*
X44594Y23616D01*
X44843D01*
X43515Y22039D02*
Y22537D01*
X43764D01*
X43847Y22454D01*
Y22288D01*
X43764Y22205D01*
X43515D01*
X44096Y22371D02*
X44262D01*
X44345Y22288D01*
Y22039D01*
X44096D01*
X44013Y22122D01*
X44096Y22205D01*
X44345D01*
X44843Y22537D02*
Y22039D01*
X44594D01*
X44511Y22122D01*
Y22288D01*
X44594Y22371D01*
X44843D01*
X29457Y26189D02*
X29375Y26272D01*
X29209D01*
X29126Y26189D01*
Y25857D01*
X29209Y25774D01*
X29375D01*
X29457Y25857D01*
X29706Y25774D02*
X29872D01*
X29955Y25857D01*
Y26023D01*
X29872Y26106D01*
X29706D01*
X29623Y26023D01*
Y25857D01*
X29706Y25774D01*
X30121D02*
Y26106D01*
X30204D01*
X30287Y26023D01*
Y25774D01*
Y26023D01*
X30370Y26106D01*
X30453Y26023D01*
Y25774D01*
X30619Y25608D02*
Y26106D01*
X30868D01*
X30951Y26023D01*
Y25857D01*
X30868Y25774D01*
X30619D01*
X31200D02*
X31366D01*
X31449Y25857D01*
Y26023D01*
X31366Y26106D01*
X31200D01*
X31117Y26023D01*
Y25857D01*
X31200Y25774D01*
X31615D02*
Y26106D01*
X31864D01*
X31947Y26023D01*
Y25774D01*
X32362D02*
X32196D01*
X32113Y25857D01*
Y26023D01*
X32196Y26106D01*
X32362D01*
X32445Y26023D01*
Y25940D01*
X32113D01*
X32611Y25774D02*
Y26106D01*
X32860D01*
X32943Y26023D01*
Y25774D01*
X33191Y26189D02*
Y26106D01*
X33109D01*
X33274D01*
X33191D01*
Y25857D01*
X33274Y25774D01*
X34353Y26189D02*
X34270Y26272D01*
X34104D01*
X34021Y26189D01*
Y26106D01*
X34104Y26023D01*
X34270D01*
X34353Y25940D01*
Y25857D01*
X34270Y25774D01*
X34104D01*
X34021Y25857D01*
X34519Y25774D02*
X34685D01*
X34602D01*
Y26106D01*
X34519D01*
X35266Y26272D02*
Y25774D01*
X35017D01*
X34934Y25857D01*
Y26023D01*
X35017Y26106D01*
X35266D01*
X35681Y25774D02*
X35515D01*
X35432Y25857D01*
Y26023D01*
X35515Y26106D01*
X35681D01*
X35764Y26023D01*
Y25940D01*
X35432D01*
X36428Y26023D02*
X36760D01*
X37755Y26189D02*
X37672Y26272D01*
X37506D01*
X37423Y26189D01*
Y26106D01*
X37506Y26023D01*
X37672D01*
X37755Y25940D01*
Y25857D01*
X37672Y25774D01*
X37506D01*
X37423Y25857D01*
X38004Y25774D02*
X38170D01*
X38253Y25857D01*
Y26023D01*
X38170Y26106D01*
X38004D01*
X37921Y26023D01*
Y25857D01*
X38004Y25774D01*
X38419D02*
X38585D01*
X38502D01*
Y26272D01*
X38419D01*
X39166D02*
Y25774D01*
X38917D01*
X38834Y25857D01*
Y26023D01*
X38917Y26106D01*
X39166D01*
X39581Y25774D02*
X39415D01*
X39332Y25857D01*
Y26023D01*
X39415Y26106D01*
X39581D01*
X39664Y26023D01*
Y25940D01*
X39332D01*
X39830Y26106D02*
Y25774D01*
Y25940D01*
X39913Y26023D01*
X39996Y26106D01*
X40079D01*
X41157Y26189D02*
X41074Y26272D01*
X40908D01*
X40825Y26189D01*
Y26106D01*
X40908Y26023D01*
X41074D01*
X41157Y25940D01*
Y25857D01*
X41074Y25774D01*
X40908D01*
X40825Y25857D01*
X41323Y25774D02*
X41489D01*
X41406D01*
Y26106D01*
X41323D01*
X42070Y26272D02*
Y25774D01*
X41821D01*
X41738Y25857D01*
Y26023D01*
X41821Y26106D01*
X42070D01*
X42485Y25774D02*
X42319D01*
X42236Y25857D01*
Y26023D01*
X42319Y26106D01*
X42485D01*
X42568Y26023D01*
Y25940D01*
X42236D01*
X29457Y24944D02*
X29375Y25027D01*
X29209D01*
X29126Y24944D01*
Y24612D01*
X29209Y24529D01*
X29375D01*
X29457Y24612D01*
X29706Y24529D02*
X29872D01*
X29955Y24612D01*
Y24778D01*
X29872Y24861D01*
X29706D01*
X29623Y24778D01*
Y24612D01*
X29706Y24529D01*
X30121D02*
Y24861D01*
X30204D01*
X30287Y24778D01*
Y24529D01*
Y24778D01*
X30370Y24861D01*
X30453Y24778D01*
Y24529D01*
X30619Y24363D02*
Y24861D01*
X30868D01*
X30951Y24778D01*
Y24612D01*
X30868Y24529D01*
X30619D01*
X31200D02*
X31366D01*
X31449Y24612D01*
Y24778D01*
X31366Y24861D01*
X31200D01*
X31117Y24778D01*
Y24612D01*
X31200Y24529D01*
X31615D02*
Y24861D01*
X31864D01*
X31947Y24778D01*
Y24529D01*
X32362D02*
X32196D01*
X32113Y24612D01*
Y24778D01*
X32196Y24861D01*
X32362D01*
X32445Y24778D01*
Y24695D01*
X32113D01*
X32611Y24529D02*
Y24861D01*
X32860D01*
X32943Y24778D01*
Y24529D01*
X33191Y24944D02*
Y24861D01*
X33109D01*
X33274D01*
X33191D01*
Y24612D01*
X33274Y24529D01*
X34353Y24944D02*
X34270Y25027D01*
X34104D01*
X34021Y24944D01*
Y24861D01*
X34104Y24778D01*
X34270D01*
X34353Y24695D01*
Y24612D01*
X34270Y24529D01*
X34104D01*
X34021Y24612D01*
X34519Y24529D02*
X34685D01*
X34602D01*
Y24861D01*
X34519D01*
X35266Y25027D02*
Y24529D01*
X35017D01*
X34934Y24612D01*
Y24778D01*
X35017Y24861D01*
X35266D01*
X35681Y24529D02*
X35515D01*
X35432Y24612D01*
Y24778D01*
X35515Y24861D01*
X35681D01*
X35764Y24778D01*
Y24695D01*
X35432D01*
X36428Y24778D02*
X36760D01*
X37755Y24944D02*
X37672Y25027D01*
X37506D01*
X37423Y24944D01*
Y24861D01*
X37506Y24778D01*
X37672D01*
X37755Y24695D01*
Y24612D01*
X37672Y24529D01*
X37506D01*
X37423Y24612D01*
X38004Y24529D02*
X38170D01*
X38253Y24612D01*
Y24778D01*
X38170Y24861D01*
X38004D01*
X37921Y24778D01*
Y24612D01*
X38004Y24529D01*
X38419D02*
X38585D01*
X38502D01*
Y25027D01*
X38419D01*
X39166D02*
Y24529D01*
X38917D01*
X38834Y24612D01*
Y24778D01*
X38917Y24861D01*
X39166D01*
X39581Y24529D02*
X39415D01*
X39332Y24612D01*
Y24778D01*
X39415Y24861D01*
X39581D01*
X39664Y24778D01*
Y24695D01*
X39332D01*
X39830Y24861D02*
Y24529D01*
Y24695D01*
X39913Y24778D01*
X39996Y24861D01*
X40079D01*
X41157Y24944D02*
X41074Y25027D01*
X40908D01*
X40825Y24944D01*
Y24861D01*
X40908Y24778D01*
X41074D01*
X41157Y24695D01*
Y24612D01*
X41074Y24529D01*
X40908D01*
X40825Y24612D01*
X41323Y24529D02*
X41489D01*
X41406D01*
Y24861D01*
X41323D01*
X42070Y25027D02*
Y24529D01*
X41821D01*
X41738Y24612D01*
Y24778D01*
X41821Y24861D01*
X42070D01*
X42485Y24529D02*
X42319D01*
X42236Y24612D01*
Y24778D01*
X42319Y24861D01*
X42485D01*
X42568Y24778D01*
Y24695D01*
X42236D01*
X29457Y23699D02*
X29375Y23782D01*
X29209D01*
X29126Y23699D01*
Y23367D01*
X29209Y23284D01*
X29375D01*
X29457Y23367D01*
X29706Y23284D02*
X29872D01*
X29955Y23367D01*
Y23533D01*
X29872Y23616D01*
X29706D01*
X29623Y23533D01*
Y23367D01*
X29706Y23284D01*
X30121D02*
Y23616D01*
X30204D01*
X30287Y23533D01*
Y23284D01*
Y23533D01*
X30370Y23616D01*
X30453Y23533D01*
Y23284D01*
X30619Y23118D02*
Y23616D01*
X30868D01*
X30951Y23533D01*
Y23367D01*
X30868Y23284D01*
X30619D01*
X31200D02*
X31366D01*
X31449Y23367D01*
Y23533D01*
X31366Y23616D01*
X31200D01*
X31117Y23533D01*
Y23367D01*
X31200Y23284D01*
X31615D02*
Y23616D01*
X31864D01*
X31947Y23533D01*
Y23284D01*
X32362D02*
X32196D01*
X32113Y23367D01*
Y23533D01*
X32196Y23616D01*
X32362D01*
X32445Y23533D01*
Y23450D01*
X32113D01*
X32611Y23284D02*
Y23616D01*
X32860D01*
X32943Y23533D01*
Y23284D01*
X33191Y23699D02*
Y23616D01*
X33109D01*
X33274D01*
X33191D01*
Y23367D01*
X33274Y23284D01*
X34353Y23699D02*
X34270Y23782D01*
X34104D01*
X34021Y23699D01*
Y23616D01*
X34104Y23533D01*
X34270D01*
X34353Y23450D01*
Y23367D01*
X34270Y23284D01*
X34104D01*
X34021Y23367D01*
X34519Y23284D02*
X34685D01*
X34602D01*
Y23616D01*
X34519D01*
X35266Y23782D02*
Y23284D01*
X35017D01*
X34934Y23367D01*
Y23533D01*
X35017Y23616D01*
X35266D01*
X35681Y23284D02*
X35515D01*
X35432Y23367D01*
Y23533D01*
X35515Y23616D01*
X35681D01*
X35764Y23533D01*
Y23450D01*
X35432D01*
X36428Y23533D02*
X36760D01*
X37755Y23699D02*
X37672Y23782D01*
X37506D01*
X37423Y23699D01*
Y23616D01*
X37506Y23533D01*
X37672D01*
X37755Y23450D01*
Y23367D01*
X37672Y23284D01*
X37506D01*
X37423Y23367D01*
X38004Y23284D02*
X38170D01*
X38253Y23367D01*
Y23533D01*
X38170Y23616D01*
X38004D01*
X37921Y23533D01*
Y23367D01*
X38004Y23284D01*
X38419D02*
X38585D01*
X38502D01*
Y23782D01*
X38419D01*
X39166D02*
Y23284D01*
X38917D01*
X38834Y23367D01*
Y23533D01*
X38917Y23616D01*
X39166D01*
X39581Y23284D02*
X39415D01*
X39332Y23367D01*
Y23533D01*
X39415Y23616D01*
X39581D01*
X39664Y23533D01*
Y23450D01*
X39332D01*
X39830Y23616D02*
Y23284D01*
Y23450D01*
X39913Y23533D01*
X39996Y23616D01*
X40079D01*
X41157Y23699D02*
X41074Y23782D01*
X40908D01*
X40825Y23699D01*
Y23616D01*
X40908Y23533D01*
X41074D01*
X41157Y23450D01*
Y23367D01*
X41074Y23284D01*
X40908D01*
X40825Y23367D01*
X41323Y23284D02*
X41489D01*
X41406D01*
Y23616D01*
X41323D01*
X42070Y23782D02*
Y23284D01*
X41821D01*
X41738Y23367D01*
Y23533D01*
X41821Y23616D01*
X42070D01*
X42485Y23284D02*
X42319D01*
X42236Y23367D01*
Y23533D01*
X42319Y23616D01*
X42485D01*
X42568Y23533D01*
Y23450D01*
X42236D01*
X29457Y22454D02*
X29375Y22537D01*
X29209D01*
X29126Y22454D01*
Y22122D01*
X29209Y22039D01*
X29375D01*
X29457Y22122D01*
X29706Y22039D02*
X29872D01*
X29955Y22122D01*
Y22288D01*
X29872Y22371D01*
X29706D01*
X29623Y22288D01*
Y22122D01*
X29706Y22039D01*
X30121D02*
Y22371D01*
X30204D01*
X30287Y22288D01*
Y22039D01*
Y22288D01*
X30370Y22371D01*
X30453Y22288D01*
Y22039D01*
X30619Y21873D02*
Y22371D01*
X30868D01*
X30951Y22288D01*
Y22122D01*
X30868Y22039D01*
X30619D01*
X31200D02*
X31366D01*
X31449Y22122D01*
Y22288D01*
X31366Y22371D01*
X31200D01*
X31117Y22288D01*
Y22122D01*
X31200Y22039D01*
X31615D02*
Y22371D01*
X31864D01*
X31947Y22288D01*
Y22039D01*
X32362D02*
X32196D01*
X32113Y22122D01*
Y22288D01*
X32196Y22371D01*
X32362D01*
X32445Y22288D01*
Y22205D01*
X32113D01*
X32611Y22039D02*
Y22371D01*
X32860D01*
X32943Y22288D01*
Y22039D01*
X33191Y22454D02*
Y22371D01*
X33109D01*
X33274D01*
X33191D01*
Y22122D01*
X33274Y22039D01*
X34353Y22454D02*
X34270Y22537D01*
X34104D01*
X34021Y22454D01*
Y22371D01*
X34104Y22288D01*
X34270D01*
X34353Y22205D01*
Y22122D01*
X34270Y22039D01*
X34104D01*
X34021Y22122D01*
X34519Y22039D02*
X34685D01*
X34602D01*
Y22371D01*
X34519D01*
X35266Y22537D02*
Y22039D01*
X35017D01*
X34934Y22122D01*
Y22288D01*
X35017Y22371D01*
X35266D01*
X35681Y22039D02*
X35515D01*
X35432Y22122D01*
Y22288D01*
X35515Y22371D01*
X35681D01*
X35764Y22288D01*
Y22205D01*
X35432D01*
X36428Y22288D02*
X36760D01*
X37755Y22454D02*
X37672Y22537D01*
X37506D01*
X37423Y22454D01*
Y22371D01*
X37506Y22288D01*
X37672D01*
X37755Y22205D01*
Y22122D01*
X37672Y22039D01*
X37506D01*
X37423Y22122D01*
X38004Y22039D02*
X38170D01*
X38253Y22122D01*
Y22288D01*
X38170Y22371D01*
X38004D01*
X37921Y22288D01*
Y22122D01*
X38004Y22039D01*
X38419D02*
X38585D01*
X38502D01*
Y22537D01*
X38419D01*
X39166D02*
Y22039D01*
X38917D01*
X38834Y22122D01*
Y22288D01*
X38917Y22371D01*
X39166D01*
X39581Y22039D02*
X39415D01*
X39332Y22122D01*
Y22288D01*
X39415Y22371D01*
X39581D01*
X39664Y22288D01*
Y22205D01*
X39332D01*
X39830Y22371D02*
Y22039D01*
Y22205D01*
X39913Y22288D01*
X39996Y22371D01*
X40079D01*
X41157Y22454D02*
X41074Y22537D01*
X40908D01*
X40825Y22454D01*
Y22371D01*
X40908Y22288D01*
X41074D01*
X41157Y22205D01*
Y22122D01*
X41074Y22039D01*
X40908D01*
X40825Y22122D01*
X41323Y22039D02*
X41489D01*
X41406D01*
Y22371D01*
X41323D01*
X42070Y22537D02*
Y22039D01*
X41821D01*
X41738Y22122D01*
Y22288D01*
X41821Y22371D01*
X42070D01*
X42485Y22039D02*
X42319D01*
X42236Y22122D01*
Y22288D01*
X42319Y22371D01*
X42485D01*
X42568Y22288D01*
Y22205D01*
X42236D01*
X22980Y25774D02*
Y26272D01*
X23229D01*
X23312Y26189D01*
Y26023D01*
X23229Y25940D01*
X22980D01*
X23146D02*
X23312Y25774D01*
X23561D02*
X23727D01*
X23810Y25857D01*
Y26023D01*
X23727Y26106D01*
X23561D01*
X23478Y26023D01*
Y25857D01*
X23561Y25774D01*
X23976Y26106D02*
Y25857D01*
X24059Y25774D01*
X24308D01*
Y26106D01*
X24474Y25774D02*
Y26106D01*
X24723D01*
X24806Y26023D01*
Y25774D01*
X25304Y26272D02*
Y25774D01*
X25055D01*
X24972Y25857D01*
Y26023D01*
X25055Y26106D01*
X25304D01*
X22980Y24529D02*
Y25027D01*
X23229D01*
X23312Y24944D01*
Y24778D01*
X23229Y24695D01*
X22980D01*
X23146D02*
X23312Y24529D01*
X23561D02*
X23727D01*
X23810Y24612D01*
Y24778D01*
X23727Y24861D01*
X23561D01*
X23478Y24778D01*
Y24612D01*
X23561Y24529D01*
X23976Y24861D02*
Y24612D01*
X24059Y24529D01*
X24308D01*
Y24861D01*
X24474Y24529D02*
Y24861D01*
X24723D01*
X24806Y24778D01*
Y24529D01*
X25304Y25027D02*
Y24529D01*
X25055D01*
X24972Y24612D01*
Y24778D01*
X25055Y24861D01*
X25304D01*
X23312Y23699D02*
X23229Y23782D01*
X23063D01*
X22980Y23699D01*
Y23616D01*
X23063Y23533D01*
X23229D01*
X23312Y23450D01*
Y23367D01*
X23229Y23284D01*
X23063D01*
X22980Y23367D01*
X23478Y23284D02*
X23644D01*
X23561D01*
Y23782D01*
X23478D01*
X23976Y23284D02*
X24142D01*
X24225Y23367D01*
Y23533D01*
X24142Y23616D01*
X23976D01*
X23893Y23533D01*
Y23367D01*
X23976Y23284D01*
X24474Y23699D02*
Y23616D01*
X24391D01*
X24557D01*
X24474D01*
Y23367D01*
X24557Y23284D01*
X23312Y22454D02*
X23229Y22537D01*
X23063D01*
X22980Y22454D01*
Y22371D01*
X23063Y22288D01*
X23229D01*
X23312Y22205D01*
Y22122D01*
X23229Y22039D01*
X23063D01*
X22980Y22122D01*
X23478Y22039D02*
X23644D01*
X23561D01*
Y22537D01*
X23478D01*
X23976Y22039D02*
X24142D01*
X24225Y22122D01*
Y22288D01*
X24142Y22371D01*
X23976D01*
X23893Y22288D01*
Y22122D01*
X23976Y22039D01*
X24474Y22454D02*
Y22371D01*
X24391D01*
X24557D01*
X24474D01*
Y22122D01*
X24557Y22039D01*
X18727Y25774D02*
Y26272D01*
X18976D01*
X19059Y26189D01*
Y26023D01*
X18976Y25940D01*
X18727D01*
X19225Y26272D02*
X19557D01*
X19391D01*
Y25774D01*
X19723Y26272D02*
Y25774D01*
Y26023D01*
X20055D01*
Y26272D01*
Y25774D01*
X18727Y24529D02*
Y25027D01*
X18976D01*
X19059Y24944D01*
Y24778D01*
X18976Y24695D01*
X18727D01*
X19225Y25027D02*
X19557D01*
X19391D01*
Y24529D01*
X19723Y25027D02*
Y24529D01*
Y24778D01*
X20055D01*
Y25027D01*
Y24529D01*
X18727Y23284D02*
Y23782D01*
X18976D01*
X19059Y23699D01*
Y23533D01*
X18976Y23450D01*
X18727D01*
X19225Y23782D02*
X19557D01*
X19391D01*
Y23284D01*
X19723Y23782D02*
Y23284D01*
Y23533D01*
X20055D01*
Y23782D01*
Y23284D01*
X18727Y22039D02*
Y22537D01*
X18976D01*
X19059Y22454D01*
Y22288D01*
X18976Y22205D01*
X18727D01*
X19225Y22537D02*
X19557D01*
X19391D01*
Y22039D01*
X19723Y22537D02*
Y22039D01*
Y22288D01*
X20055D01*
Y22537D01*
Y22039D01*
X9565Y25774D02*
X9731D01*
X9648D01*
Y26272D01*
X9565Y26189D01*
X9980D02*
X10063Y26272D01*
X10229D01*
X10312Y26189D01*
Y25857D01*
X10229Y25774D01*
X10063D01*
X9980Y25857D01*
Y26189D01*
X10478Y25774D02*
Y25857D01*
X10561D01*
Y25774D01*
X10478D01*
X10893Y26189D02*
X10976Y26272D01*
X11142D01*
X11225Y26189D01*
Y25857D01*
X11142Y25774D01*
X10976D01*
X10893Y25857D01*
Y26189D01*
X11391D02*
X11474Y26272D01*
X11639D01*
X11722Y26189D01*
Y25857D01*
X11639Y25774D01*
X11474D01*
X11391Y25857D01*
Y26189D01*
X11888Y25774D02*
Y26106D01*
X11971D01*
X12054Y26023D01*
Y25774D01*
Y26023D01*
X12137Y26106D01*
X12220Y26023D01*
Y25774D01*
X12386D02*
X12552D01*
X12469D01*
Y26106D01*
X12386D01*
X12801Y25774D02*
X12967D01*
X12884D01*
Y26272D01*
X12801D01*
X13880Y25774D02*
X13714Y25940D01*
Y26106D01*
X13880Y26272D01*
X14129Y26189D02*
X14212Y26272D01*
X14378D01*
X14461Y26189D01*
Y25857D01*
X14378Y25774D01*
X14212D01*
X14129Y25857D01*
Y26189D01*
X14627Y25774D02*
Y25857D01*
X14710D01*
Y25774D01*
X14627D01*
X15373D02*
X15042D01*
X15373Y26106D01*
Y26189D01*
X15291Y26272D01*
X15125D01*
X15042Y26189D01*
X15871Y26272D02*
X15539D01*
Y26023D01*
X15705Y26106D01*
X15788D01*
X15871Y26023D01*
Y25857D01*
X15788Y25774D01*
X15622D01*
X15539Y25857D01*
X16286Y25774D02*
Y26272D01*
X16037Y26023D01*
X16369D01*
X16535Y25774D02*
Y26106D01*
X16618D01*
X16701Y26023D01*
Y25774D01*
Y26023D01*
X16784Y26106D01*
X16867Y26023D01*
Y25774D01*
X17033D02*
Y26106D01*
X17116D01*
X17199Y26023D01*
Y25774D01*
Y26023D01*
X17282Y26106D01*
X17365Y26023D01*
Y25774D01*
X17531D02*
X17697Y25940D01*
Y26106D01*
X17531Y26272D01*
X9565Y24944D02*
X9648Y25027D01*
X9814D01*
X9897Y24944D01*
Y24861D01*
X9814Y24778D01*
X9731D01*
X9814D01*
X9897Y24695D01*
Y24612D01*
X9814Y24529D01*
X9648D01*
X9565Y24612D01*
X10395Y25027D02*
X10063D01*
Y24778D01*
X10229Y24861D01*
X10312D01*
X10395Y24778D01*
Y24612D01*
X10312Y24529D01*
X10146D01*
X10063Y24612D01*
X10561Y24529D02*
Y24612D01*
X10644D01*
Y24529D01*
X10561D01*
X11225D02*
Y25027D01*
X10976Y24778D01*
X11308D01*
X11474Y24944D02*
X11557Y25027D01*
X11722D01*
X11805Y24944D01*
Y24861D01*
X11722Y24778D01*
X11639D01*
X11722D01*
X11805Y24695D01*
Y24612D01*
X11722Y24529D01*
X11557D01*
X11474Y24612D01*
X11971Y24529D02*
Y24861D01*
X12054D01*
X12137Y24778D01*
Y24529D01*
Y24778D01*
X12220Y24861D01*
X12303Y24778D01*
Y24529D01*
X12469D02*
X12635D01*
X12552D01*
Y24861D01*
X12469D01*
X12884Y24529D02*
X13050D01*
X12967D01*
Y25027D01*
X12884D01*
X13963Y24529D02*
X13797Y24695D01*
Y24861D01*
X13963Y25027D01*
X14212Y24944D02*
X14295Y25027D01*
X14461D01*
X14544Y24944D01*
Y24612D01*
X14461Y24529D01*
X14295D01*
X14212Y24612D01*
Y24944D01*
X14710Y24529D02*
Y24612D01*
X14793D01*
Y24529D01*
X14710D01*
X15125Y24612D02*
X15208Y24529D01*
X15373D01*
X15456Y24612D01*
Y24944D01*
X15373Y25027D01*
X15208D01*
X15125Y24944D01*
Y24861D01*
X15208Y24778D01*
X15456D01*
X15622Y24944D02*
X15705Y25027D01*
X15871D01*
X15954Y24944D01*
Y24612D01*
X15871Y24529D01*
X15705D01*
X15622Y24612D01*
Y24944D01*
X16120D02*
X16203Y25027D01*
X16369D01*
X16452Y24944D01*
Y24612D01*
X16369Y24529D01*
X16203D01*
X16120Y24612D01*
Y24944D01*
X16618Y24529D02*
Y24861D01*
X16701D01*
X16784Y24778D01*
Y24529D01*
Y24778D01*
X16867Y24861D01*
X16950Y24778D01*
Y24529D01*
X17116D02*
Y24861D01*
X17199D01*
X17282Y24778D01*
Y24529D01*
Y24778D01*
X17365Y24861D01*
X17448Y24778D01*
Y24529D01*
X17614D02*
X17780Y24695D01*
Y24861D01*
X17614Y25027D01*
X9897Y23284D02*
X9565D01*
X9897Y23616D01*
Y23699D01*
X9814Y23782D01*
X9648D01*
X9565Y23699D01*
X10395Y23782D02*
X10063D01*
Y23533D01*
X10229Y23616D01*
X10312D01*
X10395Y23533D01*
Y23367D01*
X10312Y23284D01*
X10146D01*
X10063Y23367D01*
X10561Y23284D02*
Y23367D01*
X10644D01*
Y23284D01*
X10561D01*
X11308Y23782D02*
X10976D01*
Y23533D01*
X11142Y23616D01*
X11225D01*
X11308Y23533D01*
Y23367D01*
X11225Y23284D01*
X11059D01*
X10976Y23367D01*
X11474D02*
X11557Y23284D01*
X11722D01*
X11805Y23367D01*
Y23699D01*
X11722Y23782D01*
X11557D01*
X11474Y23699D01*
Y23616D01*
X11557Y23533D01*
X11805D01*
X11971Y23284D02*
Y23616D01*
X12054D01*
X12137Y23533D01*
Y23284D01*
Y23533D01*
X12220Y23616D01*
X12303Y23533D01*
Y23284D01*
X12469D02*
X12635D01*
X12552D01*
Y23616D01*
X12469D01*
X12884Y23284D02*
X13050D01*
X12967D01*
Y23782D01*
X12884D01*
X13963Y23284D02*
X13797Y23450D01*
Y23616D01*
X13963Y23782D01*
X14212Y23699D02*
X14295Y23782D01*
X14461D01*
X14544Y23699D01*
Y23367D01*
X14461Y23284D01*
X14295D01*
X14212Y23367D01*
Y23699D01*
X14710Y23284D02*
Y23367D01*
X14793D01*
Y23284D01*
X14710D01*
X15456Y23782D02*
X15291Y23699D01*
X15125Y23533D01*
Y23367D01*
X15208Y23284D01*
X15373D01*
X15456Y23367D01*
Y23450D01*
X15373Y23533D01*
X15125D01*
X15954Y23782D02*
X15622D01*
Y23533D01*
X15788Y23616D01*
X15871D01*
X15954Y23533D01*
Y23367D01*
X15871Y23284D01*
X15705D01*
X15622Y23367D01*
X16120Y23699D02*
X16203Y23782D01*
X16369D01*
X16452Y23699D01*
Y23367D01*
X16369Y23284D01*
X16203D01*
X16120Y23367D01*
Y23699D01*
X16618Y23284D02*
Y23616D01*
X16701D01*
X16784Y23533D01*
Y23284D01*
Y23533D01*
X16867Y23616D01*
X16950Y23533D01*
Y23284D01*
X17116D02*
Y23616D01*
X17199D01*
X17282Y23533D01*
Y23284D01*
Y23533D01*
X17365Y23616D01*
X17448Y23533D01*
Y23284D01*
X17614D02*
X17780Y23450D01*
Y23616D01*
X17614Y23782D01*
X9897Y22039D02*
X9565D01*
X9897Y22371D01*
Y22454D01*
X9814Y22537D01*
X9648D01*
X9565Y22454D01*
X10063Y22537D02*
X10395D01*
Y22454D01*
X10063Y22122D01*
Y22039D01*
X10561D02*
Y22122D01*
X10644D01*
Y22039D01*
X10561D01*
X11308Y22537D02*
X10976D01*
Y22288D01*
X11142Y22371D01*
X11225D01*
X11308Y22288D01*
Y22122D01*
X11225Y22039D01*
X11059D01*
X10976Y22122D01*
X11805Y22537D02*
X11639Y22454D01*
X11474Y22288D01*
Y22122D01*
X11557Y22039D01*
X11722D01*
X11805Y22122D01*
Y22205D01*
X11722Y22288D01*
X11474D01*
X11971Y22039D02*
Y22371D01*
X12054D01*
X12137Y22288D01*
Y22039D01*
Y22288D01*
X12220Y22371D01*
X12303Y22288D01*
Y22039D01*
X12469D02*
X12635D01*
X12552D01*
Y22371D01*
X12469D01*
X12884Y22039D02*
X13050D01*
X12967D01*
Y22537D01*
X12884D01*
X13963Y22039D02*
X13797Y22205D01*
Y22371D01*
X13963Y22537D01*
X14212Y22454D02*
X14295Y22537D01*
X14461D01*
X14544Y22454D01*
Y22122D01*
X14461Y22039D01*
X14295D01*
X14212Y22122D01*
Y22454D01*
X14710Y22039D02*
Y22122D01*
X14793D01*
Y22039D01*
X14710D01*
X15125Y22537D02*
X15456D01*
Y22454D01*
X15125Y22122D01*
Y22039D01*
X15622Y22454D02*
X15705Y22537D01*
X15871D01*
X15954Y22454D01*
Y22122D01*
X15871Y22039D01*
X15705D01*
X15622Y22122D01*
Y22454D01*
X16120D02*
X16203Y22537D01*
X16369D01*
X16452Y22454D01*
Y22122D01*
X16369Y22039D01*
X16203D01*
X16120Y22122D01*
Y22454D01*
X16618Y22039D02*
Y22371D01*
X16701D01*
X16784Y22288D01*
Y22039D01*
Y22288D01*
X16867Y22371D01*
X16950Y22288D01*
Y22039D01*
X17116D02*
Y22371D01*
X17199D01*
X17282Y22288D01*
Y22039D01*
Y22288D01*
X17365Y22371D01*
X17448Y22288D01*
Y22039D01*
X17614D02*
X17780Y22205D01*
Y22371D01*
X17614Y22537D01*
X4635Y20794D02*
X4801D01*
X4718D01*
Y21292D01*
X4635Y21209D01*
X5382Y21292D02*
X5216Y21209D01*
X5050Y21043D01*
Y20877D01*
X5133Y20794D01*
X5299D01*
X5382Y20877D01*
Y20960D01*
X5299Y21043D01*
X5050D01*
X5797Y20794D02*
Y21292D01*
X5548Y21043D01*
X5880D01*
X6544Y21292D02*
X6875D01*
X6709D01*
Y20794D01*
X7124D02*
X7290D01*
X7373Y20877D01*
Y21043D01*
X7290Y21126D01*
X7124D01*
X7041Y21043D01*
Y20877D01*
X7124Y20794D01*
X7622Y21209D02*
Y21126D01*
X7539D01*
X7705D01*
X7622D01*
Y20877D01*
X7705Y20794D01*
X8037Y21126D02*
X8203D01*
X8286Y21043D01*
Y20794D01*
X8037D01*
X7954Y20877D01*
X8037Y20960D01*
X8286D01*
X8452Y20794D02*
X8618D01*
X8535D01*
Y21292D01*
X8452D01*
X4635Y25774D02*
X4801D01*
X4718D01*
Y26272D01*
X4635Y26189D01*
X5382Y25774D02*
X5050D01*
X5382Y26106D01*
Y26189D01*
X5299Y26272D01*
X5133D01*
X5050Y26189D01*
X5797Y25774D02*
Y26272D01*
X5548Y26023D01*
X5880D01*
X4635Y24944D02*
X4718Y25027D01*
X4884D01*
X4967Y24944D01*
Y24861D01*
X4884Y24778D01*
X4801D01*
X4884D01*
X4967Y24695D01*
Y24612D01*
X4884Y24529D01*
X4718D01*
X4635Y24612D01*
X5465Y25027D02*
X5299Y24944D01*
X5133Y24778D01*
Y24612D01*
X5216Y24529D01*
X5382D01*
X5465Y24612D01*
Y24695D01*
X5382Y24778D01*
X5133D01*
X4967Y23284D02*
X4635D01*
X4967Y23616D01*
Y23699D01*
X4884Y23782D01*
X4718D01*
X4635Y23699D01*
X4967Y22039D02*
X4635D01*
X4967Y22371D01*
Y22454D01*
X4884Y22537D01*
X4718D01*
X4635Y22454D01*
X15297Y18859D02*
X15629D01*
X15297Y19025D02*
X15629D01*
X16293Y18693D02*
Y19191D01*
X16542D01*
X16625Y19108D01*
Y18942D01*
X16542Y18859D01*
X16293D01*
X16459D02*
X16625Y18693D01*
X16874D02*
X17040D01*
X17123Y18776D01*
Y18942D01*
X17040Y19025D01*
X16874D01*
X16791Y18942D01*
Y18776D01*
X16874Y18693D01*
X17289Y19025D02*
Y18776D01*
X17372Y18693D01*
X17620D01*
Y19025D01*
X17869Y19108D02*
Y19025D01*
X17786D01*
X17952D01*
X17869D01*
Y18776D01*
X17952Y18693D01*
X18450D02*
X18284D01*
X18201Y18776D01*
Y18942D01*
X18284Y19025D01*
X18450D01*
X18533Y18942D01*
Y18859D01*
X18201D01*
X19031Y19191D02*
Y18693D01*
X18782D01*
X18699Y18776D01*
Y18942D01*
X18782Y19025D01*
X19031D01*
X19695Y18693D02*
Y19191D01*
X19944D01*
X20027Y19108D01*
Y18942D01*
X19944Y18859D01*
X19695D01*
X20276Y19025D02*
X20442D01*
X20525Y18942D01*
Y18693D01*
X20276D01*
X20193Y18776D01*
X20276Y18859D01*
X20525D01*
X20774Y19108D02*
Y19025D01*
X20691D01*
X20857D01*
X20774D01*
Y18776D01*
X20857Y18693D01*
X21106Y19191D02*
Y18693D01*
Y18942D01*
X21189Y19025D01*
X21354D01*
X21437Y18942D01*
Y18693D01*
X22101Y19191D02*
Y18693D01*
X22433D01*
X22848D02*
X22682D01*
X22599Y18776D01*
Y18942D01*
X22682Y19025D01*
X22848D01*
X22931Y18942D01*
Y18859D01*
X22599D01*
X23097Y18693D02*
Y19025D01*
X23346D01*
X23429Y18942D01*
Y18693D01*
X23761Y18527D02*
X23844D01*
X23927Y18610D01*
Y19025D01*
X23678D01*
X23595Y18942D01*
Y18776D01*
X23678Y18693D01*
X23927D01*
X24176Y19108D02*
Y19025D01*
X24093D01*
X24259D01*
X24176D01*
Y18776D01*
X24259Y18693D01*
X24508Y19191D02*
Y18693D01*
Y18942D01*
X24591Y19025D01*
X24757D01*
X24840Y18942D01*
Y18693D01*
X25503Y18942D02*
X25835D01*
X25669Y19108D02*
Y18776D01*
X26499Y19191D02*
X26831D01*
X26665D01*
Y18693D01*
X27080D02*
X27246D01*
X27329Y18776D01*
Y18942D01*
X27246Y19025D01*
X27080D01*
X26997Y18942D01*
Y18776D01*
X27080Y18693D01*
X27578D02*
X27744D01*
X27827Y18776D01*
Y18942D01*
X27744Y19025D01*
X27578D01*
X27495Y18942D01*
Y18776D01*
X27578Y18693D01*
X27993D02*
X28159D01*
X28076D01*
Y19191D01*
X27993D01*
X29237Y19108D02*
X29154Y19191D01*
X28988D01*
X28905Y19108D01*
Y19025D01*
X28988Y18942D01*
X29154D01*
X29237Y18859D01*
Y18776D01*
X29154Y18693D01*
X28988D01*
X28905Y18776D01*
X29403Y18693D02*
X29569D01*
X29486D01*
Y19025D01*
X29403D01*
X29818D02*
X30150D01*
X29818Y18693D01*
X30150D01*
X30565D02*
X30399D01*
X30316Y18776D01*
Y18942D01*
X30399Y19025D01*
X30565D01*
X30648Y18942D01*
Y18859D01*
X30316D01*
X31312D02*
X31644D01*
X31312Y19025D02*
X31644D01*
X32639Y19108D02*
X32557Y19191D01*
X32391D01*
X32308Y19108D01*
Y19025D01*
X32391Y18942D01*
X32557D01*
X32639Y18859D01*
Y18776D01*
X32557Y18693D01*
X32391D01*
X32308Y18776D01*
X32805Y18693D02*
X32971D01*
X32888D01*
Y19191D01*
X32805D01*
X33303Y18693D02*
X33469D01*
X33552Y18776D01*
Y18942D01*
X33469Y19025D01*
X33303D01*
X33220Y18942D01*
Y18776D01*
X33303Y18693D01*
X33801Y19108D02*
Y19025D01*
X33718D01*
X33884D01*
X33801D01*
Y18776D01*
X33884Y18693D01*
X34631D02*
X34797D01*
X34714D01*
Y19191D01*
X34631D01*
X35295Y18693D02*
X35129D01*
X35046Y18776D01*
Y18942D01*
X35129Y19025D01*
X35295D01*
X35378Y18942D01*
Y18859D01*
X35046D01*
X35544Y18693D02*
Y19025D01*
X35793D01*
X35876Y18942D01*
Y18693D01*
X36208Y18527D02*
X36291D01*
X36374Y18610D01*
Y19025D01*
X36125D01*
X36042Y18942D01*
Y18776D01*
X36125Y18693D01*
X36374D01*
X36622Y19108D02*
Y19025D01*
X36539D01*
X36705D01*
X36622D01*
Y18776D01*
X36705Y18693D01*
X36954Y19191D02*
Y18693D01*
Y18942D01*
X37037Y19025D01*
X37203D01*
X37286Y18942D01*
Y18693D01*
X38033Y19025D02*
X38199D01*
X38282Y18942D01*
Y18693D01*
X38033D01*
X37950Y18776D01*
X38033Y18859D01*
X38282D01*
X38448Y18693D02*
X38697D01*
X38780Y18776D01*
X38697Y18859D01*
X38531D01*
X38448Y18942D01*
X38531Y19025D01*
X38780D01*
X39776Y19191D02*
Y18693D01*
X39527D01*
X39444Y18776D01*
Y18942D01*
X39527Y19025D01*
X39776D01*
X40190Y18693D02*
X40025D01*
X39942Y18776D01*
Y18942D01*
X40025Y19025D01*
X40190D01*
X40273Y18942D01*
Y18859D01*
X39942D01*
X40522Y18693D02*
Y19108D01*
Y18942D01*
X40439D01*
X40605D01*
X40522D01*
Y19108D01*
X40605Y19191D01*
X40854Y18693D02*
X41020D01*
X40937D01*
Y19025D01*
X40854D01*
X41269Y18693D02*
Y19025D01*
X41518D01*
X41601Y18942D01*
Y18693D01*
X42016D02*
X41850D01*
X41767Y18776D01*
Y18942D01*
X41850Y19025D01*
X42016D01*
X42099Y18942D01*
Y18859D01*
X41767D01*
X42597Y19191D02*
Y18693D01*
X42348D01*
X42265Y18776D01*
Y18942D01*
X42348Y19025D01*
X42597D01*
X43261Y18693D02*
X43427D01*
X43344D01*
Y19025D01*
X43261D01*
X43676Y18693D02*
Y19025D01*
X43924D01*
X44007Y18942D01*
Y18693D01*
X44754Y19108D02*
Y19025D01*
X44671D01*
X44837D01*
X44754D01*
Y18776D01*
X44837Y18693D01*
X45086Y19191D02*
Y18693D01*
Y18942D01*
X45169Y19025D01*
X45335D01*
X45418Y18942D01*
Y18693D01*
X45833D02*
X45667D01*
X45584Y18776D01*
Y18942D01*
X45667Y19025D01*
X45833D01*
X45916Y18942D01*
Y18859D01*
X45584D01*
X46580Y18693D02*
Y19191D01*
X46829D01*
X46912Y19108D01*
Y18942D01*
X46829Y18859D01*
X46580D01*
X47410Y19108D02*
X47327Y19191D01*
X47161D01*
X47078Y19108D01*
Y18776D01*
X47161Y18693D01*
X47327D01*
X47410Y18776D01*
X47576Y19191D02*
Y18693D01*
X47824D01*
X47907Y18776D01*
Y18859D01*
X47824Y18942D01*
X47576D01*
X47824D01*
X47907Y19025D01*
Y19108D01*
X47824Y19191D01*
X47576D01*
X48571Y18693D02*
X48737D01*
X48654D01*
Y19191D01*
X48571D01*
X49069Y19025D02*
X49235D01*
X49318Y18942D01*
Y18693D01*
X49069D01*
X48986Y18776D01*
X49069Y18859D01*
X49318D01*
X49484Y19025D02*
Y18776D01*
X49567Y18693D01*
X49816D01*
Y18610D01*
X49733Y18527D01*
X49650D01*
X49816Y18693D02*
Y19025D01*
X50065Y18693D02*
X50231D01*
X50314Y18776D01*
Y18942D01*
X50231Y19025D01*
X50065D01*
X49982Y18942D01*
Y18776D01*
X50065Y18693D01*
X50480Y19025D02*
Y18776D01*
X50563Y18693D01*
X50812D01*
Y19025D01*
X51061Y19108D02*
Y19025D01*
X50978D01*
X51144D01*
X51061D01*
Y18776D01*
X51144Y18693D01*
X18201Y19723D02*
X18533D01*
X18201Y19889D02*
X18533D01*
X19529Y19972D02*
X19446Y20055D01*
X19280D01*
X19197Y19972D01*
Y19640D01*
X19280Y19557D01*
X19446D01*
X19529Y19640D01*
X19778Y19889D02*
X19944D01*
X20027Y19806D01*
Y19557D01*
X19778D01*
X19695Y19640D01*
X19778Y19723D01*
X20027D01*
X20193Y19557D02*
X20359D01*
X20276D01*
Y20055D01*
X20193D01*
X20940Y19889D02*
X20691D01*
X20608Y19806D01*
Y19640D01*
X20691Y19557D01*
X20940D01*
X21106Y19889D02*
Y19640D01*
X21189Y19557D01*
X21437D01*
Y19889D01*
X21603Y19557D02*
X21769D01*
X21686D01*
Y20055D01*
X21603D01*
X22101Y19889D02*
X22267D01*
X22350Y19806D01*
Y19557D01*
X22101D01*
X22018Y19640D01*
X22101Y19723D01*
X22350D01*
X22599Y19972D02*
Y19889D01*
X22516D01*
X22682D01*
X22599D01*
Y19640D01*
X22682Y19557D01*
X23180D02*
X23014D01*
X22931Y19640D01*
Y19806D01*
X23014Y19889D01*
X23180D01*
X23263Y19806D01*
Y19723D01*
X22931D01*
X23761Y20055D02*
Y19557D01*
X23512D01*
X23429Y19640D01*
Y19806D01*
X23512Y19889D01*
X23761D01*
X24508Y19557D02*
Y19972D01*
Y19806D01*
X24425D01*
X24591D01*
X24508D01*
Y19972D01*
X24591Y20055D01*
X24840Y19889D02*
Y19557D01*
Y19723D01*
X24923Y19806D01*
X25006Y19889D01*
X25088D01*
X25420Y19557D02*
X25586D01*
X25669Y19640D01*
Y19806D01*
X25586Y19889D01*
X25420D01*
X25337Y19806D01*
Y19640D01*
X25420Y19557D01*
X25835D02*
Y19889D01*
X25918D01*
X26001Y19806D01*
Y19557D01*
Y19806D01*
X26084Y19889D01*
X26167Y19806D01*
Y19557D01*
X26914Y19972D02*
Y19889D01*
X26831D01*
X26997D01*
X26914D01*
Y19640D01*
X26997Y19557D01*
X27329D02*
X27495D01*
X27578Y19640D01*
Y19806D01*
X27495Y19889D01*
X27329D01*
X27246Y19806D01*
Y19640D01*
X27329Y19557D01*
X27827D02*
X27993D01*
X28076Y19640D01*
Y19806D01*
X27993Y19889D01*
X27827D01*
X27744Y19806D01*
Y19640D01*
X27827Y19557D01*
X28242D02*
X28408D01*
X28325D01*
Y20055D01*
X28242D01*
X29154Y19557D02*
X29403D01*
X29486Y19640D01*
X29403Y19723D01*
X29237D01*
X29154Y19806D01*
X29237Y19889D01*
X29486D01*
X29735Y19972D02*
Y19889D01*
X29652D01*
X29818D01*
X29735D01*
Y19640D01*
X29818Y19557D01*
X30150Y19889D02*
X30316D01*
X30399Y19806D01*
Y19557D01*
X30150D01*
X30067Y19640D01*
X30150Y19723D01*
X30399D01*
X30565Y19889D02*
Y19557D01*
Y19723D01*
X30648Y19806D01*
X30731Y19889D01*
X30814D01*
X31146Y19972D02*
Y19889D01*
X31063D01*
X31229D01*
X31146D01*
Y19640D01*
X31229Y19557D01*
X32308Y19889D02*
X32059D01*
X31976Y19806D01*
Y19640D01*
X32059Y19557D01*
X32308D01*
X32722D02*
X32557D01*
X32474Y19640D01*
Y19806D01*
X32557Y19889D01*
X32722D01*
X32805Y19806D01*
Y19723D01*
X32474D01*
X32971Y19557D02*
Y19889D01*
X33220D01*
X33303Y19806D01*
Y19557D01*
X33552Y19972D02*
Y19889D01*
X33469D01*
X33635D01*
X33552D01*
Y19640D01*
X33635Y19557D01*
X33884Y19889D02*
Y19557D01*
Y19723D01*
X33967Y19806D01*
X34050Y19889D01*
X34133D01*
X34631Y19557D02*
X34465D01*
X34382Y19640D01*
Y19806D01*
X34465Y19889D01*
X34631D01*
X34714Y19806D01*
Y19723D01*
X34382D01*
X35378Y19391D02*
Y19889D01*
X35627D01*
X35710Y19806D01*
Y19640D01*
X35627Y19557D01*
X35378D01*
X35959D02*
X36125D01*
X36208Y19640D01*
Y19806D01*
X36125Y19889D01*
X35959D01*
X35876Y19806D01*
Y19640D01*
X35959Y19557D01*
X36374D02*
X36622D01*
X36705Y19640D01*
X36622Y19723D01*
X36456D01*
X36374Y19806D01*
X36456Y19889D01*
X36705D01*
X36871Y19557D02*
X37037D01*
X36954D01*
Y19889D01*
X36871D01*
X37369Y19972D02*
Y19889D01*
X37286D01*
X37452D01*
X37369D01*
Y19640D01*
X37452Y19557D01*
X37701D02*
X37867D01*
X37784D01*
Y19889D01*
X37701D01*
X38199Y19557D02*
X38365D01*
X38448Y19640D01*
Y19806D01*
X38365Y19889D01*
X38199D01*
X38116Y19806D01*
Y19640D01*
X38199Y19557D01*
X38614D02*
Y19889D01*
X38863D01*
X38946Y19806D01*
Y19557D01*
X39693Y19972D02*
Y19889D01*
X39610D01*
X39776D01*
X39693D01*
Y19640D01*
X39776Y19557D01*
X40108D02*
X40273D01*
X40356Y19640D01*
Y19806D01*
X40273Y19889D01*
X40108D01*
X40025Y19806D01*
Y19640D01*
X40108Y19557D01*
X41103Y19972D02*
Y19889D01*
X41020D01*
X41186D01*
X41103D01*
Y19640D01*
X41186Y19557D01*
X41518D02*
X41684D01*
X41767Y19640D01*
Y19806D01*
X41684Y19889D01*
X41518D01*
X41435Y19806D01*
Y19640D01*
X41518Y19557D01*
X42016D02*
X42182D01*
X42265Y19640D01*
Y19806D01*
X42182Y19889D01*
X42016D01*
X41933Y19806D01*
Y19640D01*
X42016Y19557D01*
X42431D02*
X42597D01*
X42514D01*
Y20055D01*
X42431D01*
X43593Y19557D02*
X43427D01*
X43344Y19640D01*
Y19806D01*
X43427Y19889D01*
X43593D01*
X43676Y19806D01*
Y19723D01*
X43344D01*
X43842Y19557D02*
Y19889D01*
X44090D01*
X44173Y19806D01*
Y19557D01*
X44671Y20055D02*
Y19557D01*
X44422D01*
X44339Y19640D01*
Y19806D01*
X44422Y19889D01*
X44671D01*
X45667D02*
X45418D01*
X45335Y19806D01*
Y19640D01*
X45418Y19557D01*
X45667D01*
X46082D02*
X45916D01*
X45833Y19640D01*
Y19806D01*
X45916Y19889D01*
X46082D01*
X46165Y19806D01*
Y19723D01*
X45833D01*
X46331Y19557D02*
Y19889D01*
X46580D01*
X46663Y19806D01*
Y19557D01*
X46912Y19972D02*
Y19889D01*
X46829D01*
X46995D01*
X46912D01*
Y19640D01*
X46995Y19557D01*
X47244Y19889D02*
Y19557D01*
Y19723D01*
X47327Y19806D01*
X47410Y19889D01*
X47493D01*
X47990Y19557D02*
X47824D01*
X47741Y19640D01*
Y19806D01*
X47824Y19889D01*
X47990D01*
X48073Y19806D01*
Y19723D01*
X47741D01*
X48737Y19391D02*
Y19889D01*
X48986D01*
X49069Y19806D01*
Y19640D01*
X48986Y19557D01*
X48737D01*
X49318D02*
X49484D01*
X49567Y19640D01*
Y19806D01*
X49484Y19889D01*
X49318D01*
X49235Y19806D01*
Y19640D01*
X49318Y19557D01*
X49733D02*
X49982D01*
X50065Y19640D01*
X49982Y19723D01*
X49816D01*
X49733Y19806D01*
X49816Y19889D01*
X50065D01*
X50231Y19557D02*
X50397D01*
X50314D01*
Y19889D01*
X50231D01*
X50729Y19972D02*
Y19889D01*
X50646D01*
X50812D01*
X50729D01*
Y19640D01*
X50812Y19557D01*
X51061D02*
X51227D01*
X51144D01*
Y19889D01*
X51061D01*
X51558Y19557D02*
X51724D01*
X51807Y19640D01*
Y19806D01*
X51724Y19889D01*
X51558D01*
X51476Y19806D01*
Y19640D01*
X51558Y19557D01*
X51973D02*
Y19889D01*
X52222D01*
X52305Y19806D01*
Y19557D01*
X52471D02*
Y19640D01*
X52554D01*
Y19557D01*
X52471D01*
D43*
X-365Y26646D02*
X85021D01*
X-365Y21666D02*
X85021D01*
X-365Y20421D02*
X85021D01*
Y27891D01*
X-365D02*
X85021D01*
X-365Y20421D02*
Y27891D01*
X73324Y20421D02*
Y27891D01*
X64245Y20421D02*
Y27891D01*
X54337Y20421D02*
Y27891D01*
X48092Y20421D02*
Y27891D01*
X43142Y20421D02*
Y27891D01*
X28752Y20421D02*
Y27891D01*
X22607Y20421D02*
Y27891D01*
X18353Y20421D02*
Y27891D01*
X9192Y20421D02*
Y27891D01*
X4262Y20421D02*
Y27891D01*
D96*
X803Y-1073D02*
G03*
X803Y-1073I-100J0D01*
G01*
Y1073D02*
G03*
X803Y1073I-100J0D01*
G01*
X12900Y2130D02*
X13000Y2180D01*
X13100Y2130D01*
X13050Y2230D02*
X13100Y2130D01*
X13050Y2230D02*
X13100Y2330D01*
X13000Y2280D02*
X13100Y2330D01*
X12900D02*
X13000Y2280D01*
X12900Y2330D02*
X12950Y2230D01*
X12900Y2130D02*
X12950Y2230D01*
X14990Y897D02*
X15090Y947D01*
X15190Y897D01*
X15140Y997D02*
X15190Y897D01*
X15140Y997D02*
X15190Y1097D01*
X15090Y1047D02*
X15190Y1097D01*
X14990D02*
X15090Y1047D01*
X14990Y1097D02*
X15040Y997D01*
X14990Y897D02*
X15040Y997D01*
X15590Y114D02*
X15690Y164D01*
X15790Y114D01*
X15740Y214D02*
X15790Y114D01*
X15740Y214D02*
X15790Y314D01*
X15690Y264D02*
X15790Y314D01*
X15590D02*
X15690Y264D01*
X15590Y314D02*
X15640Y214D01*
X15590Y114D02*
X15640Y214D01*
X15090Y-70D02*
X15190Y-20D01*
X15290Y-70D01*
X15240Y30D02*
X15290Y-70D01*
X15240Y30D02*
X15290Y130D01*
X15190Y80D02*
X15290Y130D01*
X15090D02*
X15190Y80D01*
X15090Y130D02*
X15140Y30D01*
X15090Y-70D02*
X15140Y30D01*
X14710Y870D02*
X14810Y920D01*
X14910Y870D01*
X14860Y970D02*
X14910Y870D01*
X14860Y970D02*
X14910Y1070D01*
X14810Y1020D02*
X14910Y1070D01*
X14710D02*
X14810Y1020D01*
X14710Y1070D02*
X14760Y970D01*
X14710Y870D02*
X14760Y970D01*
X20190Y350D02*
X20290Y400D01*
X20390Y350D01*
X20340Y450D02*
X20390Y350D01*
X20340Y450D02*
X20390Y550D01*
X20290Y500D02*
X20390Y550D01*
X20190D02*
X20290Y500D01*
X20190Y550D02*
X20240Y450D01*
X20190Y350D02*
X20240Y450D01*
X8400Y-2440D02*
X8500Y-2390D01*
X8600Y-2440D01*
X8550Y-2340D02*
X8600Y-2440D01*
X8550Y-2340D02*
X8600Y-2240D01*
X8500Y-2290D02*
X8600Y-2240D01*
X8400D02*
X8500Y-2290D01*
X8400Y-2240D02*
X8450Y-2340D01*
X8400Y-2440D02*
X8450Y-2340D01*
X12900Y-1940D02*
X13000Y-1890D01*
X13100Y-1940D01*
X13050Y-1840D02*
X13100Y-1940D01*
X13050Y-1840D02*
X13100Y-1740D01*
X13000Y-1790D02*
X13100Y-1740D01*
X12900D02*
X13000Y-1790D01*
X12900Y-1740D02*
X12950Y-1840D01*
X12900Y-1940D02*
X12950Y-1840D01*
X4520Y-1580D02*
X4620Y-1530D01*
X4720Y-1580D01*
X4670Y-1480D02*
X4720Y-1580D01*
X4670Y-1480D02*
X4720Y-1380D01*
X4620Y-1430D02*
X4720Y-1380D01*
X4520D02*
X4620Y-1430D01*
X4520Y-1380D02*
X4570Y-1480D01*
X4520Y-1580D02*
X4570Y-1480D01*
X6800Y710D02*
X6900Y760D01*
X7000Y710D01*
X6950Y810D02*
X7000Y710D01*
X6950Y810D02*
X7000Y910D01*
X6900Y860D02*
X7000Y910D01*
X6800D02*
X6900Y860D01*
X6800Y910D02*
X6850Y810D01*
X6800Y710D02*
X6850Y810D01*
X5590Y2320D02*
X5690Y2370D01*
X5790Y2320D01*
X5740Y2420D02*
X5790Y2320D01*
X5740Y2420D02*
X5790Y2520D01*
X5690Y2470D02*
X5790Y2520D01*
X5590D02*
X5690Y2470D01*
X5590Y2520D02*
X5640Y2420D01*
X5590Y2320D02*
X5640Y2420D01*
X5850Y2150D02*
X5950Y2200D01*
X6050Y2150D01*
X6000Y2250D02*
X6050Y2150D01*
X6000Y2250D02*
X6050Y2350D01*
X5950Y2300D02*
X6050Y2350D01*
X5850D02*
X5950Y2300D01*
X5850Y2350D02*
X5900Y2250D01*
X5850Y2150D02*
X5900Y2250D01*
X4060Y-660D02*
X4160Y-610D01*
X4260Y-660D01*
X4210Y-560D02*
X4260Y-660D01*
X4210Y-560D02*
X4260Y-460D01*
X4160Y-510D02*
X4260Y-460D01*
X4060D02*
X4160Y-510D01*
X4060Y-460D02*
X4110Y-560D01*
X4060Y-660D02*
X4110Y-560D01*
X6600Y2150D02*
X6700Y2200D01*
X6800Y2150D01*
X6750Y2250D02*
X6800Y2150D01*
X6750Y2250D02*
X6800Y2350D01*
X6700Y2300D02*
X6800Y2350D01*
X6600D02*
X6700Y2300D01*
X6600Y2350D02*
X6650Y2250D01*
X6600Y2150D02*
X6650Y2250D01*
X4350Y-900D02*
X4450Y-850D01*
X4550Y-900D01*
X4500Y-800D02*
X4550Y-900D01*
X4500Y-800D02*
X4550Y-700D01*
X4450Y-750D02*
X4550Y-700D01*
X4350D02*
X4450Y-750D01*
X4350Y-700D02*
X4400Y-800D01*
X4350Y-900D02*
X4400Y-800D01*
X8100Y-917D02*
X8200Y-867D01*
X8300Y-917D01*
X8250Y-817D02*
X8300Y-917D01*
X8250Y-817D02*
X8300Y-717D01*
X8200Y-767D02*
X8300Y-717D01*
X8100D02*
X8200Y-767D01*
X8100Y-717D02*
X8150Y-817D01*
X8100Y-917D02*
X8150Y-817D01*
X7000Y-1650D02*
X7100Y-1600D01*
X7200Y-1650D01*
X7150Y-1550D02*
X7200Y-1650D01*
X7150Y-1550D02*
X7200Y-1450D01*
X7100Y-1500D02*
X7200Y-1450D01*
X7000D02*
X7100Y-1500D01*
X7000Y-1450D02*
X7050Y-1550D01*
X7000Y-1650D02*
X7050Y-1550D01*
X6820Y-600D02*
X6920Y-550D01*
X7020Y-600D01*
X6970Y-500D02*
X7020Y-600D01*
X6970Y-500D02*
X7020Y-400D01*
X6920Y-450D02*
X7020Y-400D01*
X6820D02*
X6920Y-450D01*
X6820Y-400D02*
X6870Y-500D01*
X6820Y-600D02*
X6870Y-500D01*
X8100Y-390D02*
X8200Y-340D01*
X8300Y-390D01*
X8250Y-290D02*
X8300Y-390D01*
X8250Y-290D02*
X8300Y-190D01*
X8200Y-240D02*
X8300Y-190D01*
X8100D02*
X8200Y-240D01*
X8100Y-190D02*
X8150Y-290D01*
X8100Y-390D02*
X8150Y-290D01*
X6820Y-350D02*
X6920Y-300D01*
X7020Y-350D01*
X6970Y-250D02*
X7020Y-350D01*
X6970Y-250D02*
X7020Y-150D01*
X6920Y-200D02*
X7020Y-150D01*
X6820D02*
X6920Y-200D01*
X6820Y-150D02*
X6870Y-250D01*
X6820Y-350D02*
X6870Y-250D01*
X7000Y-50D02*
X7100Y0D01*
X7200Y-50D01*
X7150Y50D02*
X7200Y-50D01*
X7150Y50D02*
X7200Y150D01*
X7100Y100D02*
X7200Y150D01*
X7000D02*
X7100Y100D01*
X7000Y150D02*
X7050Y50D01*
X7000Y-50D02*
X7050Y50D01*
X6400Y-60D02*
X6500Y-10D01*
X6600Y-60D01*
X6550Y40D02*
X6600Y-60D01*
X6550Y40D02*
X6600Y140D01*
X6500Y90D02*
X6600Y140D01*
X6400D02*
X6500Y90D01*
X6400Y140D02*
X6450Y40D01*
X6400Y-60D02*
X6450Y40D01*
X6950Y-810D02*
X7050Y-760D01*
X7150Y-810D01*
X7100Y-710D02*
X7150Y-810D01*
X7100Y-710D02*
X7150Y-610D01*
X7050Y-660D02*
X7150Y-610D01*
X6950D02*
X7050Y-660D01*
X6950Y-610D02*
X7000Y-710D01*
X6950Y-810D02*
X7000Y-710D01*
X7660Y1450D02*
X7760Y1500D01*
X7860Y1450D01*
X7810Y1550D02*
X7860Y1450D01*
X7810Y1550D02*
X7860Y1650D01*
X7760Y1600D02*
X7860Y1650D01*
X7660D02*
X7760Y1600D01*
X7660Y1650D02*
X7710Y1550D01*
X7660Y1450D02*
X7710Y1550D01*
X5150Y1900D02*
X5250Y1950D01*
X5350Y1900D01*
X5300Y2000D02*
X5350Y1900D01*
X5300Y2000D02*
X5350Y2100D01*
X5250Y2050D02*
X5350Y2100D01*
X5150D02*
X5250Y2050D01*
X5150Y2100D02*
X5200Y2000D01*
X5150Y1900D02*
X5200Y2000D01*
X3300Y855D02*
X3400Y905D01*
X3500Y855D01*
X3450Y955D02*
X3500Y855D01*
X3450Y955D02*
X3500Y1055D01*
X3400Y1005D02*
X3500Y1055D01*
X3300D02*
X3400Y1005D01*
X3300Y1055D02*
X3350Y955D01*
X3300Y855D02*
X3350Y955D01*
X9393Y1150D02*
X9493Y1200D01*
X9593Y1150D01*
X9543Y1250D02*
X9593Y1150D01*
X9543Y1250D02*
X9593Y1350D01*
X9493Y1300D02*
X9593Y1350D01*
X9393D02*
X9493Y1300D01*
X9393Y1350D02*
X9443Y1250D01*
X9393Y1150D02*
X9443Y1250D01*
X11650Y1240D02*
X11750Y1290D01*
X11850Y1240D01*
X11800Y1340D02*
X11850Y1240D01*
X11800Y1340D02*
X11850Y1440D01*
X11750Y1390D02*
X11850Y1440D01*
X11650D02*
X11750Y1390D01*
X11650Y1440D02*
X11700Y1340D01*
X11650Y1240D02*
X11700Y1340D01*
X16900Y1890D02*
X17000Y1940D01*
X17100Y1890D01*
X17050Y1990D02*
X17100Y1890D01*
X17050Y1990D02*
X17100Y2090D01*
X17000Y2040D02*
X17100Y2090D01*
X16900D02*
X17000Y2040D01*
X16900Y2090D02*
X16950Y1990D01*
X16900Y1890D02*
X16950Y1990D01*
X16700Y130D02*
X16800Y180D01*
X16900Y130D01*
X16850Y230D02*
X16900Y130D01*
X16850Y230D02*
X16900Y330D01*
X16800Y280D02*
X16900Y330D01*
X16700D02*
X16800Y280D01*
X16700Y330D02*
X16750Y230D01*
X16700Y130D02*
X16750Y230D01*
X17842Y1750D02*
X17942Y1800D01*
X18042Y1750D01*
X17992Y1850D02*
X18042Y1750D01*
X17992Y1850D02*
X18042Y1950D01*
X17942Y1900D02*
X18042Y1950D01*
X17842D02*
X17942Y1900D01*
X17842Y1950D02*
X17892Y1850D01*
X17842Y1750D02*
X17892Y1850D01*
X17630Y40D02*
X17730Y90D01*
X17830Y40D01*
X17780Y140D02*
X17830Y40D01*
X17780Y140D02*
X17830Y240D01*
X17730Y190D02*
X17830Y240D01*
X17630D02*
X17730Y190D01*
X17630Y240D02*
X17680Y140D01*
X17630Y40D02*
X17680Y140D01*
X17120Y-900D02*
X17220Y-850D01*
X17320Y-900D01*
X17270Y-800D02*
X17320Y-900D01*
X17270Y-800D02*
X17320Y-700D01*
X17220Y-750D02*
X17320Y-700D01*
X17120D02*
X17220Y-750D01*
X17120Y-700D02*
X17170Y-800D01*
X17120Y-900D02*
X17170Y-800D01*
X13650Y-100D02*
X13750Y-50D01*
X13850Y-100D01*
X13800Y0D02*
X13850Y-100D01*
X13800Y0D02*
X13850Y100D01*
X13750Y50D02*
X13850Y100D01*
X13650D02*
X13750Y50D01*
X13650Y100D02*
X13700Y0D01*
X13650Y-100D02*
X13700Y0D01*
X17400Y1890D02*
X17500Y1940D01*
X17600Y1890D01*
X17550Y1990D02*
X17600Y1890D01*
X17550Y1990D02*
X17600Y2090D01*
X17500Y2040D02*
X17600Y2090D01*
X17400D02*
X17500Y2040D01*
X17400Y2090D02*
X17450Y1990D01*
X17400Y1890D02*
X17450Y1990D01*
X16250Y-1800D02*
X16350Y-1750D01*
X16450Y-1800D01*
X16400Y-1700D02*
X16450Y-1800D01*
X16400Y-1700D02*
X16450Y-1600D01*
X16350Y-1650D02*
X16450Y-1600D01*
X16250D02*
X16350Y-1650D01*
X16250Y-1600D02*
X16300Y-1700D01*
X16250Y-1800D02*
X16300Y-1700D01*
X13150Y-800D02*
X13250Y-750D01*
X13350Y-800D01*
X13300Y-700D02*
X13350Y-800D01*
X13300Y-700D02*
X13350Y-600D01*
X13250Y-650D02*
X13350Y-600D01*
X13150D02*
X13250Y-650D01*
X13150Y-600D02*
X13200Y-700D01*
X13150Y-800D02*
X13200Y-700D01*
X13730Y-2130D02*
X13830Y-2080D01*
X13930Y-2130D01*
X13880Y-2030D02*
X13930Y-2130D01*
X13880Y-2030D02*
X13930Y-1930D01*
X13830Y-1980D02*
X13930Y-1930D01*
X13730D02*
X13830Y-1980D01*
X13730Y-1930D02*
X13780Y-2030D01*
X13730Y-2130D02*
X13780Y-2030D01*
X15870Y-2330D02*
X15970Y-2280D01*
X16070Y-2330D01*
X16020Y-2230D02*
X16070Y-2330D01*
X16020Y-2230D02*
X16070Y-2130D01*
X15970Y-2180D02*
X16070Y-2130D01*
X15870D02*
X15970Y-2180D01*
X15870Y-2130D02*
X15920Y-2230D01*
X15870Y-2330D02*
X15920Y-2230D01*
X19500Y-2240D02*
X19600Y-2190D01*
X19700Y-2240D01*
X19650Y-2140D02*
X19700Y-2240D01*
X19650Y-2140D02*
X19700Y-2040D01*
X19600Y-2090D02*
X19700Y-2040D01*
X19500D02*
X19600Y-2090D01*
X19500Y-2040D02*
X19550Y-2140D01*
X19500Y-2240D02*
X19550Y-2140D01*
X20170Y-2620D02*
X20270Y-2570D01*
X20370Y-2620D01*
X20320Y-2520D02*
X20370Y-2620D01*
X20320Y-2520D02*
X20370Y-2420D01*
X20270Y-2470D02*
X20370Y-2420D01*
X20170D02*
X20270Y-2470D01*
X20170Y-2420D02*
X20220Y-2520D01*
X20170Y-2620D02*
X20220Y-2520D01*
X19969Y-2300D02*
X20069Y-2250D01*
X20169Y-2300D01*
X20119Y-2200D02*
X20169Y-2300D01*
X20119Y-2200D02*
X20169Y-2100D01*
X20069Y-2150D02*
X20169Y-2100D01*
X19969D02*
X20069Y-2150D01*
X19969Y-2100D02*
X20019Y-2200D01*
X19969Y-2300D02*
X20019Y-2200D01*
X19772Y-2100D02*
X19872Y-2050D01*
X19972Y-2100D01*
X19922Y-2000D02*
X19972Y-2100D01*
X19922Y-2000D02*
X19972Y-1900D01*
X19872Y-1950D02*
X19972Y-1900D01*
X19772D02*
X19872Y-1950D01*
X19772Y-1900D02*
X19822Y-2000D01*
X19772Y-2100D02*
X19822Y-2000D01*
X18650Y-2850D02*
X18750Y-2800D01*
X18850Y-2850D01*
X18800Y-2750D02*
X18850Y-2850D01*
X18800Y-2750D02*
X18850Y-2650D01*
X18750Y-2700D02*
X18850Y-2650D01*
X18650D02*
X18750Y-2700D01*
X18650Y-2650D02*
X18700Y-2750D01*
X18650Y-2850D02*
X18700Y-2750D01*
X19650Y-2850D02*
X19750Y-2800D01*
X19850Y-2850D01*
X19800Y-2750D02*
X19850Y-2850D01*
X19800Y-2750D02*
X19850Y-2650D01*
X19750Y-2700D02*
X19850Y-2650D01*
X19650D02*
X19750Y-2700D01*
X19650Y-2650D02*
X19700Y-2750D01*
X19650Y-2850D02*
X19700Y-2750D01*
X19150Y-2850D02*
X19250Y-2800D01*
X19350Y-2850D01*
X19300Y-2750D02*
X19350Y-2850D01*
X19300Y-2750D02*
X19350Y-2650D01*
X19250Y-2700D02*
X19350Y-2650D01*
X19150D02*
X19250Y-2700D01*
X19150Y-2650D02*
X19200Y-2750D01*
X19150Y-2850D02*
X19200Y-2750D01*
X20166Y-2100D02*
X20266Y-2050D01*
X20366Y-2100D01*
X20316Y-2000D02*
X20366Y-2100D01*
X20316Y-2000D02*
X20366Y-1900D01*
X20266Y-1950D02*
X20366Y-1900D01*
X20166D02*
X20266Y-1950D01*
X20166Y-1900D02*
X20216Y-2000D01*
X20166Y-2100D02*
X20216Y-2000D01*
X2100Y1760D02*
X2200Y1810D01*
X2300Y1760D01*
X2250Y1860D02*
X2300Y1760D01*
X2250Y1860D02*
X2300Y1960D01*
X2200Y1910D02*
X2300Y1960D01*
X2100D02*
X2200Y1910D01*
X2100Y1960D02*
X2150Y1860D01*
X2100Y1760D02*
X2150Y1860D01*
X2120Y-127D02*
X2220Y-77D01*
X2320Y-127D01*
X2270Y-27D02*
X2320Y-127D01*
X2270Y-27D02*
X2320Y73D01*
X2220Y23D02*
X2320Y73D01*
X2120D02*
X2220Y23D01*
X2120Y73D02*
X2170Y-27D01*
X2120Y-127D02*
X2170Y-27D01*
X2350Y562D02*
X2450Y612D01*
X2550Y562D01*
X2500Y662D02*
X2550Y562D01*
X2500Y662D02*
X2550Y762D01*
X2450Y712D02*
X2550Y762D01*
X2350D02*
X2450Y712D01*
X2350Y762D02*
X2400Y662D01*
X2350Y562D02*
X2400Y662D01*
X2600Y100D02*
X2700Y150D01*
X2800Y100D01*
X2750Y200D02*
X2800Y100D01*
X2750Y200D02*
X2800Y300D01*
X2700Y250D02*
X2800Y300D01*
X2600D02*
X2700Y250D01*
X2600Y300D02*
X2650Y200D01*
X2600Y100D02*
X2650Y200D01*
X4300Y2250D02*
X4400Y2300D01*
X4500Y2250D01*
X4450Y2350D02*
X4500Y2250D01*
X4450Y2350D02*
X4500Y2450D01*
X4400Y2400D02*
X4500Y2450D01*
X4300D02*
X4400Y2400D01*
X4300Y2450D02*
X4350Y2350D01*
X4300Y2250D02*
X4350Y2350D01*
X19900Y2196D02*
X20000Y2246D01*
X20100Y2196D01*
X20050Y2296D02*
X20100Y2196D01*
X20050Y2296D02*
X20100Y2396D01*
X20000Y2346D02*
X20100Y2396D01*
X19900D02*
X20000Y2346D01*
X19900Y2396D02*
X19950Y2296D01*
X19900Y2196D02*
X19950Y2296D01*
X20900Y2650D02*
X21000Y2700D01*
X21100Y2650D01*
X21050Y2750D02*
X21100Y2650D01*
X21050Y2750D02*
X21100Y2850D01*
X21000Y2800D02*
X21100Y2850D01*
X20900D02*
X21000Y2800D01*
X20900Y2850D02*
X20950Y2750D01*
X20900Y2650D02*
X20950Y2750D01*
X19400Y2650D02*
X19500Y2700D01*
X19600Y2650D01*
X19550Y2750D02*
X19600Y2650D01*
X19550Y2750D02*
X19600Y2850D01*
X19500Y2800D02*
X19600Y2850D01*
X19400D02*
X19500Y2800D01*
X19400Y2850D02*
X19450Y2750D01*
X19400Y2650D02*
X19450Y2750D01*
X3300Y-1049D02*
X3400Y-999D01*
X3500Y-1049D01*
X3450Y-949D02*
X3500Y-1049D01*
X3450Y-949D02*
X3500Y-849D01*
X3400Y-899D02*
X3500Y-849D01*
X3300D02*
X3400Y-899D01*
X3300Y-849D02*
X3350Y-949D01*
X3300Y-1049D02*
X3350Y-949D01*
X10300Y-800D02*
X10400Y-750D01*
X10500Y-800D01*
X10450Y-700D02*
X10500Y-800D01*
X10450Y-700D02*
X10500Y-600D01*
X10400Y-650D02*
X10500Y-600D01*
X10300D02*
X10400Y-650D01*
X10300Y-600D02*
X10350Y-700D01*
X10300Y-800D02*
X10350Y-700D01*
X10300Y231D02*
X10400Y281D01*
X10500Y231D01*
X10450Y331D02*
X10500Y231D01*
X10450Y331D02*
X10500Y431D01*
X10400Y381D02*
X10500Y431D01*
X10300D02*
X10400Y381D01*
X10300Y431D02*
X10350Y331D01*
X10300Y231D02*
X10350Y331D01*
X19851Y-100D02*
X19951Y-50D01*
X20051Y-100D01*
X20001Y0D02*
X20051Y-100D01*
X20001Y0D02*
X20051Y100D01*
X19951Y50D02*
X20051Y100D01*
X19851D02*
X19951Y50D01*
X19851Y100D02*
X19901Y0D01*
X19851Y-100D02*
X19901Y0D01*
X21268Y-100D02*
X21368Y-50D01*
X21468Y-100D01*
X21418Y0D02*
X21468Y-100D01*
X21418Y0D02*
X21468Y100D01*
X21368Y50D02*
X21468Y100D01*
X21268D02*
X21368Y50D01*
X21268Y100D02*
X21318Y0D01*
X21268Y-100D02*
X21318Y0D01*
X21590Y-550D02*
X21690Y-500D01*
X21790Y-550D01*
X21740Y-450D02*
X21790Y-550D01*
X21740Y-450D02*
X21790Y-350D01*
X21690Y-400D02*
X21790Y-350D01*
X21590D02*
X21690Y-400D01*
X21590Y-350D02*
X21640Y-450D01*
X21590Y-550D02*
X21640Y-450D01*
X11100Y231D02*
X11200Y281D01*
X11300Y231D01*
X11250Y331D02*
X11300Y231D01*
X11250Y331D02*
X11300Y431D01*
X11200Y381D02*
X11300Y431D01*
X11100D02*
X11200Y381D01*
X11100Y431D02*
X11150Y331D01*
X11100Y231D02*
X11150Y331D01*
X16923Y-1714D02*
X17023Y-1664D01*
X17123Y-1714D01*
X17073Y-1614D02*
X17123Y-1714D01*
X17073Y-1614D02*
X17123Y-1514D01*
X17023Y-1564D02*
X17123Y-1514D01*
X16923D02*
X17023Y-1564D01*
X16923Y-1514D02*
X16973Y-1614D01*
X16923Y-1714D02*
X16973Y-1614D01*
X18900Y2650D02*
X19000Y2700D01*
X19100Y2650D01*
X19050Y2750D02*
X19100Y2650D01*
X19050Y2750D02*
X19100Y2850D01*
X19000Y2800D02*
X19100Y2850D01*
X18900D02*
X19000Y2800D01*
X18900Y2850D02*
X18950Y2750D01*
X18900Y2650D02*
X18950Y2750D01*
X18400Y2650D02*
X18500Y2700D01*
X18600Y2650D01*
X18550Y2750D02*
X18600Y2650D01*
X18550Y2750D02*
X18600Y2850D01*
X18500Y2800D02*
X18600Y2850D01*
X18400D02*
X18500Y2800D01*
X18400Y2850D02*
X18450Y2750D01*
X18400Y2650D02*
X18450Y2750D01*
X17900Y2650D02*
X18000Y2700D01*
X18100Y2650D01*
X18050Y2750D02*
X18100Y2650D01*
X18050Y2750D02*
X18100Y2850D01*
X18000Y2800D02*
X18100Y2850D01*
X17900D02*
X18000Y2800D01*
X17900Y2850D02*
X17950Y2750D01*
X17900Y2650D02*
X17950Y2750D01*
X21150Y-2600D02*
X21250Y-2550D01*
X21350Y-2600D01*
X21300Y-2500D02*
X21350Y-2600D01*
X21300Y-2500D02*
X21350Y-2400D01*
X21250Y-2450D02*
X21350Y-2400D01*
X21150D02*
X21250Y-2450D01*
X21150Y-2400D02*
X21200Y-2500D01*
X21150Y-2600D02*
X21200Y-2500D01*
X20650Y-2600D02*
X20750Y-2550D01*
X20850Y-2600D01*
X20800Y-2500D02*
X20850Y-2600D01*
X20800Y-2500D02*
X20850Y-2400D01*
X20750Y-2450D02*
X20850Y-2400D01*
X20650D02*
X20750Y-2450D01*
X20650Y-2400D02*
X20700Y-2500D01*
X20650Y-2600D02*
X20700Y-2500D01*
X21650Y-2350D02*
X21750Y-2300D01*
X21850Y-2350D01*
X21800Y-2250D02*
X21850Y-2350D01*
X21800Y-2250D02*
X21850Y-2150D01*
X21750Y-2200D02*
X21850Y-2150D01*
X21650D02*
X21750Y-2200D01*
X21650Y-2150D02*
X21700Y-2250D01*
X21650Y-2350D02*
X21700Y-2250D01*
X18150Y-3350D02*
X18250Y-3300D01*
X18350Y-3350D01*
X18300Y-3250D02*
X18350Y-3350D01*
X18300Y-3250D02*
X18350Y-3150D01*
X18250Y-3200D02*
X18350Y-3150D01*
X18150D02*
X18250Y-3200D01*
X18150Y-3150D02*
X18200Y-3250D01*
X18150Y-3350D02*
X18200Y-3250D01*
X18650Y-3350D02*
X18750Y-3300D01*
X18850Y-3350D01*
X18800Y-3250D02*
X18850Y-3350D01*
X18800Y-3250D02*
X18850Y-3150D01*
X18750Y-3200D02*
X18850Y-3150D01*
X18650D02*
X18750Y-3200D01*
X18650Y-3150D02*
X18700Y-3250D01*
X18650Y-3350D02*
X18700Y-3250D01*
X19150Y-3350D02*
X19250Y-3300D01*
X19350Y-3350D01*
X19300Y-3250D02*
X19350Y-3350D01*
X19300Y-3250D02*
X19350Y-3150D01*
X19250Y-3200D02*
X19350Y-3150D01*
X19150D02*
X19250Y-3200D01*
X19150Y-3150D02*
X19200Y-3250D01*
X19150Y-3350D02*
X19200Y-3250D01*
X19650Y-3350D02*
X19750Y-3300D01*
X19850Y-3350D01*
X19800Y-3250D02*
X19850Y-3350D01*
X19800Y-3250D02*
X19850Y-3150D01*
X19750Y-3200D02*
X19850Y-3150D01*
X19650D02*
X19750Y-3200D01*
X19650Y-3150D02*
X19700Y-3250D01*
X19650Y-3350D02*
X19700Y-3250D01*
X20150Y-3350D02*
X20250Y-3300D01*
X20350Y-3350D01*
X20300Y-3250D02*
X20350Y-3350D01*
X20300Y-3250D02*
X20350Y-3150D01*
X20250Y-3200D02*
X20350Y-3150D01*
X20150D02*
X20250Y-3200D01*
X20150Y-3150D02*
X20200Y-3250D01*
X20150Y-3350D02*
X20200Y-3250D01*
X20650Y-3350D02*
X20750Y-3300D01*
X20850Y-3350D01*
X20800Y-3250D02*
X20850Y-3350D01*
X20800Y-3250D02*
X20850Y-3150D01*
X20750Y-3200D02*
X20850Y-3150D01*
X20650D02*
X20750Y-3200D01*
X20650Y-3150D02*
X20700Y-3250D01*
X20650Y-3350D02*
X20700Y-3250D01*
X21150Y-3350D02*
X21250Y-3300D01*
X21350Y-3350D01*
X21300Y-3250D02*
X21350Y-3350D01*
X21300Y-3250D02*
X21350Y-3150D01*
X21250Y-3200D02*
X21350Y-3150D01*
X21150D02*
X21250Y-3200D01*
X21150Y-3150D02*
X21200Y-3250D01*
X21150Y-3350D02*
X21200Y-3250D01*
X17900Y3150D02*
X18000Y3200D01*
X18100Y3150D01*
X18050Y3250D02*
X18100Y3150D01*
X18050Y3250D02*
X18100Y3350D01*
X18000Y3300D02*
X18100Y3350D01*
X17900D02*
X18000Y3300D01*
X17900Y3350D02*
X17950Y3250D01*
X17900Y3150D02*
X17950Y3250D01*
X18400Y3150D02*
X18500Y3200D01*
X18600Y3150D01*
X18550Y3250D02*
X18600Y3150D01*
X18550Y3250D02*
X18600Y3350D01*
X18500Y3300D02*
X18600Y3350D01*
X18400D02*
X18500Y3300D01*
X18400Y3350D02*
X18450Y3250D01*
X18400Y3150D02*
X18450Y3250D01*
X18900Y3150D02*
X19000Y3200D01*
X19100Y3150D01*
X19050Y3250D02*
X19100Y3150D01*
X19050Y3250D02*
X19100Y3350D01*
X19000Y3300D02*
X19100Y3350D01*
X18900D02*
X19000Y3300D01*
X18900Y3350D02*
X18950Y3250D01*
X18900Y3150D02*
X18950Y3250D01*
X19400Y3150D02*
X19500Y3200D01*
X19600Y3150D01*
X19550Y3250D02*
X19600Y3150D01*
X19550Y3250D02*
X19600Y3350D01*
X19500Y3300D02*
X19600Y3350D01*
X19400D02*
X19500Y3300D01*
X19400Y3350D02*
X19450Y3250D01*
X19400Y3150D02*
X19450Y3250D01*
X19900Y3150D02*
X20000Y3200D01*
X20100Y3150D01*
X20050Y3250D02*
X20100Y3150D01*
X20050Y3250D02*
X20100Y3350D01*
X20000Y3300D02*
X20100Y3350D01*
X19900D02*
X20000Y3300D01*
X19900Y3350D02*
X19950Y3250D01*
X19900Y3150D02*
X19950Y3250D01*
X20400Y3150D02*
X20500Y3200D01*
X20600Y3150D01*
X20550Y3250D02*
X20600Y3150D01*
X20550Y3250D02*
X20600Y3350D01*
X20500Y3300D02*
X20600Y3350D01*
X20400D02*
X20500Y3300D01*
X20400Y3350D02*
X20450Y3250D01*
X20400Y3150D02*
X20450Y3250D01*
X20900Y3150D02*
X21000Y3200D01*
X21100Y3150D01*
X21050Y3250D02*
X21100Y3150D01*
X21050Y3250D02*
X21100Y3350D01*
X21000Y3300D02*
X21100Y3350D01*
X20900D02*
X21000Y3300D01*
X20900Y3350D02*
X20950Y3250D01*
X20900Y3150D02*
X20950Y3250D01*
X21400Y3150D02*
X21500Y3200D01*
X21600Y3150D01*
X21550Y3250D02*
X21600Y3150D01*
X21550Y3250D02*
X21600Y3350D01*
X21500Y3300D02*
X21600Y3350D01*
X21400D02*
X21500Y3300D01*
X21400Y3350D02*
X21450Y3250D01*
X21400Y3150D02*
X21450Y3250D01*
X21650Y2900D02*
X21750Y2950D01*
X21850Y2900D01*
X21800Y3000D02*
X21850Y2900D01*
X21800Y3000D02*
X21850Y3100D01*
X21750Y3050D02*
X21850Y3100D01*
X21650D02*
X21750Y3050D01*
X21650Y3100D02*
X21700Y3000D01*
X21650Y2900D02*
X21700Y3000D01*
X21650Y2400D02*
X21750Y2450D01*
X21850Y2400D01*
X21800Y2500D02*
X21850Y2400D01*
X21800Y2500D02*
X21850Y2600D01*
X21750Y2550D02*
X21850Y2600D01*
X21650D02*
X21750Y2550D01*
X21650Y2600D02*
X21700Y2500D01*
X21650Y2400D02*
X21700Y2500D01*
X21650Y1900D02*
X21750Y1950D01*
X21850Y1900D01*
X21800Y2000D02*
X21850Y1900D01*
X21800Y2000D02*
X21850Y2100D01*
X21750Y2050D02*
X21850Y2100D01*
X21650D02*
X21750Y2050D01*
X21650Y2100D02*
X21700Y2000D01*
X21650Y1900D02*
X21700Y2000D01*
X21650Y-3350D02*
X21750Y-3300D01*
X21850Y-3350D01*
X21800Y-3250D02*
X21850Y-3350D01*
X21800Y-3250D02*
X21850Y-3150D01*
X21750Y-3200D02*
X21850Y-3150D01*
X21650D02*
X21750Y-3200D01*
X21650Y-3150D02*
X21700Y-3250D01*
X21650Y-3350D02*
X21700Y-3250D01*
X21650Y-2850D02*
X21750Y-2800D01*
X21850Y-2850D01*
X21800Y-2750D02*
X21850Y-2850D01*
X21800Y-2750D02*
X21850Y-2650D01*
X21750Y-2700D02*
X21850Y-2650D01*
X21650D02*
X21750Y-2700D01*
X21650Y-2650D02*
X21700Y-2750D01*
X21650Y-2850D02*
X21700Y-2750D01*
X21400Y-2094D02*
X21500Y-2043D01*
X21600Y-2094D01*
X21550Y-1993D02*
X21600Y-2094D01*
X21550Y-1993D02*
X21600Y-1893D01*
X21500Y-1944D02*
X21600Y-1893D01*
X21400D02*
X21500Y-1944D01*
X21400Y-1893D02*
X21450Y-1993D01*
X21400Y-2094D02*
X21450Y-1993D01*
X9200Y-800D02*
X9300Y-750D01*
X9400Y-800D01*
X9350Y-700D02*
X9400Y-800D01*
X9350Y-700D02*
X9400Y-600D01*
X9300Y-650D02*
X9400Y-600D01*
X9200D02*
X9300Y-650D01*
X9200Y-600D02*
X9250Y-700D01*
X9200Y-800D02*
X9250Y-700D01*
X10000Y-800D02*
X10100Y-750D01*
X10200Y-800D01*
X10150Y-700D02*
X10200Y-800D01*
X10150Y-700D02*
X10200Y-600D01*
X10100Y-650D02*
X10200Y-600D01*
X10000D02*
X10100Y-650D01*
X10000Y-600D02*
X10050Y-700D01*
X10000Y-800D02*
X10050Y-700D01*
X20940Y-2100D02*
X21040Y-2050D01*
X21140Y-2100D01*
X21090Y-2000D02*
X21140Y-2100D01*
X21090Y-2000D02*
X21140Y-1900D01*
X21040Y-1950D02*
X21140Y-1900D01*
X20940D02*
X21040Y-1950D01*
X20940Y-1900D02*
X20990Y-2000D01*
X20940Y-2100D02*
X20990Y-2000D01*
X21590Y350D02*
X21690Y400D01*
X21790Y350D01*
X21740Y450D02*
X21790Y350D01*
X21740Y450D02*
X21790Y550D01*
X21690Y500D02*
X21790Y550D01*
X21590D02*
X21690Y500D01*
X21590Y550D02*
X21640Y450D01*
X21590Y350D02*
X21640Y450D01*
X20890Y-550D02*
X20990Y-500D01*
X21090Y-550D01*
X21040Y-450D02*
X21090Y-550D01*
X21040Y-450D02*
X21090Y-350D01*
X20990Y-400D02*
X21090Y-350D01*
X20890D02*
X20990Y-400D01*
X20890Y-350D02*
X20940Y-450D01*
X20890Y-550D02*
X20940Y-450D01*
Y350D02*
X21040Y400D01*
X21140Y350D01*
X21090Y450D02*
X21140Y350D01*
X21090Y450D02*
X21140Y550D01*
X21040Y500D02*
X21140Y550D01*
X20940D02*
X21040Y500D01*
X20940Y550D02*
X20990Y450D01*
X20940Y350D02*
X20990Y450D01*
X19490Y-550D02*
X19590Y-500D01*
X19690Y-550D01*
X19640Y-450D02*
X19690Y-550D01*
X19640Y-450D02*
X19690Y-350D01*
X19590Y-400D02*
X19690Y-350D01*
X19490D02*
X19590Y-400D01*
X19490Y-350D02*
X19540Y-450D01*
X19490Y-550D02*
X19540Y-450D01*
X20190Y-550D02*
X20290Y-500D01*
X20390Y-550D01*
X20340Y-450D02*
X20390Y-550D01*
X20340Y-450D02*
X20390Y-350D01*
X20290Y-400D02*
X20390Y-350D01*
X20190D02*
X20290Y-400D01*
X20190Y-350D02*
X20240Y-450D01*
X20190Y-550D02*
X20240Y-450D01*
X19490Y350D02*
X19590Y400D01*
X19690Y350D01*
X19640Y450D02*
X19690Y350D01*
X19640Y450D02*
X19690Y550D01*
X19590Y500D02*
X19690Y550D01*
X19490D02*
X19590Y500D01*
X19490Y550D02*
X19540Y450D01*
X19490Y350D02*
X19540Y450D01*
X18394Y1514D02*
X18494Y1564D01*
X18594Y1514D01*
X18544Y1614D02*
X18594Y1514D01*
X18544Y1614D02*
X18594Y1714D01*
X18494Y1664D02*
X18594Y1714D01*
X18394D02*
X18494Y1664D01*
X18394Y1714D02*
X18444Y1614D01*
X18394Y1514D02*
X18444Y1614D01*
X12900Y-1350D02*
X13000Y-1300D01*
X13100Y-1350D01*
X13050Y-1250D02*
X13100Y-1350D01*
X13050Y-1250D02*
X13100Y-1150D01*
X13000Y-1200D02*
X13100Y-1150D01*
X12900D02*
X13000Y-1200D01*
X12900Y-1150D02*
X12950Y-1250D01*
X12900Y-1350D02*
X12950Y-1250D01*
X9750Y-1795D02*
X9850Y-1745D01*
X9950Y-1795D01*
X9900Y-1695D02*
X9950Y-1795D01*
X9900Y-1695D02*
X9950Y-1595D01*
X9850Y-1645D02*
X9950Y-1595D01*
X9750D02*
X9850Y-1645D01*
X9750Y-1595D02*
X9800Y-1695D01*
X9750Y-1795D02*
X9800Y-1695D01*
X6250Y687D02*
X6350Y737D01*
X6450Y687D01*
X6400Y787D02*
X6450Y687D01*
X6400Y787D02*
X6450Y887D01*
X6350Y837D02*
X6450Y887D01*
X6250D02*
X6350Y837D01*
X6250Y887D02*
X6300Y787D01*
X6250Y687D02*
X6300Y787D01*
X5900Y1250D02*
X6000Y1300D01*
X6100Y1250D01*
X6050Y1350D02*
X6100Y1250D01*
X6050Y1350D02*
X6100Y1450D01*
X6000Y1400D02*
X6100Y1450D01*
X5900D02*
X6000Y1400D01*
X5900Y1450D02*
X5950Y1350D01*
X5900Y1250D02*
X5950Y1350D01*
X5600Y-1600D02*
X5700Y-1550D01*
X5800Y-1600D01*
X5750Y-1500D02*
X5800Y-1600D01*
X5750Y-1500D02*
X5800Y-1400D01*
X5700Y-1450D02*
X5800Y-1400D01*
X5600D02*
X5700Y-1450D01*
X5600Y-1400D02*
X5650Y-1500D01*
X5600Y-1600D02*
X5650Y-1500D01*
X4950Y1081D02*
X5050Y1131D01*
X5150Y1081D01*
X5100Y1181D02*
X5150Y1081D01*
X5100Y1181D02*
X5150Y1281D01*
X5050Y1231D02*
X5150Y1281D01*
X4950D02*
X5050Y1231D01*
X4950Y1281D02*
X5000Y1181D01*
X4950Y1081D02*
X5000Y1181D01*
X12150Y-1055D02*
X12250Y-1005D01*
X12350Y-1055D01*
X12300Y-955D02*
X12350Y-1055D01*
X12300Y-955D02*
X12350Y-855D01*
X12250Y-905D02*
X12350Y-855D01*
X12150D02*
X12250Y-905D01*
X12150Y-855D02*
X12200Y-955D01*
X12150Y-1055D02*
X12200Y-955D01*
X12900Y-2350D02*
X13000Y-2300D01*
X13100Y-2350D01*
X13050Y-2250D02*
X13100Y-2350D01*
X13050Y-2250D02*
X13100Y-2150D01*
X13000Y-2200D02*
X13100Y-2150D01*
X12900D02*
X13000Y-2200D01*
X12900Y-2150D02*
X12950Y-2250D01*
X12900Y-2350D02*
X12950Y-2250D01*
X12400Y1700D02*
X12500Y1750D01*
X12600Y1700D01*
X12550Y1800D02*
X12600Y1700D01*
X12550Y1800D02*
X12600Y1900D01*
X12500Y1850D02*
X12600Y1900D01*
X12400D02*
X12500Y1850D01*
X12400Y1900D02*
X12450Y1800D01*
X12400Y1700D02*
X12450Y1800D01*
X20559Y-2100D02*
X20659Y-2050D01*
X20759Y-2100D01*
X20709Y-2000D02*
X20759Y-2100D01*
X20709Y-2000D02*
X20759Y-1900D01*
X20659Y-1950D02*
X20759Y-1900D01*
X20559D02*
X20659Y-1950D01*
X20559Y-1900D02*
X20609Y-2000D01*
X20559Y-2100D02*
X20609Y-2000D01*
X10695Y231D02*
X10795Y281D01*
X10895Y231D01*
X10845Y331D02*
X10895Y231D01*
X10845Y331D02*
X10895Y431D01*
X10795Y381D02*
X10895Y431D01*
X10695D02*
X10795Y381D01*
X10695Y431D02*
X10745Y331D01*
X10695Y231D02*
X10745Y331D01*
X9573Y850D02*
X9673Y900D01*
X9773Y850D01*
X9723Y950D02*
X9773Y850D01*
X9723Y950D02*
X9773Y1050D01*
X9673Y1000D02*
X9773Y1050D01*
X9573D02*
X9673Y1000D01*
X9573Y1050D02*
X9623Y950D01*
X9573Y850D02*
X9623Y950D01*
X17900Y-494D02*
X18000Y-444D01*
X18100Y-494D01*
X18050Y-394D02*
X18100Y-494D01*
X18050Y-394D02*
X18100Y-294D01*
X18000Y-344D02*
X18100Y-294D01*
X17900D02*
X18000Y-344D01*
X17900Y-294D02*
X17950Y-394D01*
X17900Y-494D02*
X17950Y-394D01*
X14370Y-1980D02*
X14470Y-1930D01*
X14570Y-1980D01*
X14520Y-1880D02*
X14570Y-1980D01*
X14520Y-1880D02*
X14570Y-1780D01*
X14470Y-1830D02*
X14570Y-1780D01*
X14370D02*
X14470Y-1830D01*
X14370Y-1780D02*
X14420Y-1880D01*
X14370Y-1980D02*
X14420Y-1880D01*
X18394Y-1714D02*
X18494Y-1664D01*
X18594Y-1714D01*
X18544Y-1614D02*
X18594Y-1714D01*
X18544Y-1614D02*
X18594Y-1514D01*
X18494Y-1564D02*
X18594Y-1514D01*
X18394D02*
X18494Y-1564D01*
X18394Y-1514D02*
X18444Y-1614D01*
X18394Y-1714D02*
X18444Y-1614D01*
X8649Y1946D02*
X8749Y1996D01*
X8849Y1946D01*
X8799Y2046D02*
X8849Y1946D01*
X8799Y2046D02*
X8849Y2146D01*
X8749Y2096D02*
X8849Y2146D01*
X8649D02*
X8749Y2096D01*
X8649Y2146D02*
X8699Y2046D01*
X8649Y1946D02*
X8699Y2046D01*
X8684Y866D02*
X8784Y916D01*
X8884Y866D01*
X8834Y966D02*
X8884Y866D01*
X8834Y966D02*
X8884Y1066D01*
X8784Y1016D02*
X8884Y1066D01*
X8684D02*
X8784Y1016D01*
X8684Y1066D02*
X8734Y966D01*
X8684Y866D02*
X8734Y966D01*
X16161Y1312D02*
X16261Y1363D01*
X16361Y1312D01*
X16311Y1412D02*
X16361Y1312D01*
X16311Y1412D02*
X16361Y1513D01*
X16261Y1462D02*
X16361Y1513D01*
X16161D02*
X16261Y1462D01*
X16161Y1513D02*
X16211Y1412D01*
X16161Y1312D02*
X16211Y1412D01*
X17540Y-1721D02*
X17640Y-1671D01*
X17740Y-1721D01*
X17690Y-1621D02*
X17740Y-1721D01*
X17690Y-1621D02*
X17740Y-1521D01*
X17640Y-1571D02*
X17740Y-1521D01*
X17540D02*
X17640Y-1571D01*
X17540Y-1521D02*
X17590Y-1621D01*
X17540Y-1721D02*
X17590Y-1621D01*
X21150Y1896D02*
X21250Y1946D01*
X21350Y1896D01*
X21300Y1996D02*
X21350Y1896D01*
X21300Y1996D02*
X21350Y2096D01*
X21250Y2046D02*
X21350Y2096D01*
X21150D02*
X21250Y2046D01*
X21150Y2096D02*
X21200Y1996D01*
X21150Y1896D02*
X21200Y1996D01*
X20756Y1906D02*
X20856Y1956D01*
X20956Y1906D01*
X20906Y2006D02*
X20956Y1906D01*
X20906Y2006D02*
X20956Y2106D01*
X20856Y2056D02*
X20956Y2106D01*
X20756D02*
X20856Y2056D01*
X20756Y2106D02*
X20806Y2006D01*
X20756Y1906D02*
X20806Y2006D01*
X19970Y1906D02*
X20070Y1956D01*
X20170Y1906D01*
X20120Y2006D02*
X20170Y1906D01*
X20120Y2006D02*
X20170Y2106D01*
X20070Y2056D02*
X20170Y2106D01*
X19970D02*
X20070Y2056D01*
X19970Y2106D02*
X20020Y2006D01*
X19970Y1906D02*
X20020Y2006D01*
X20370Y1906D02*
X20470Y1956D01*
X20570Y1906D01*
X20520Y2006D02*
X20570Y1906D01*
X20520Y2006D02*
X20570Y2106D01*
X20470Y2056D02*
X20570Y2106D01*
X20370D02*
X20470Y2056D01*
X20370Y2106D02*
X20420Y2006D01*
X20370Y1906D02*
X20420Y2006D01*
X20953Y2150D02*
X21053Y2200D01*
X21153Y2150D01*
X21103Y2250D02*
X21153Y2150D01*
X21103Y2250D02*
X21153Y2350D01*
X21053Y2300D02*
X21153Y2350D01*
X20953D02*
X21053Y2300D01*
X20953Y2350D02*
X21003Y2250D01*
X20953Y2150D02*
X21003Y2250D01*
X400Y2900D02*
X600D01*
Y3100D01*
X400D02*
X600D01*
X400Y2900D02*
Y3100D01*
X1400Y2900D02*
X1600D01*
Y3100D01*
X1400D02*
X1600D01*
X1400Y2900D02*
Y3100D01*
X2400Y2900D02*
X2600D01*
Y3100D01*
X2400D02*
X2600D01*
X2400Y2900D02*
Y3100D01*
X3400Y2900D02*
X3600D01*
Y3100D01*
X3400D02*
X3600D01*
X3400Y2900D02*
Y3100D01*
X4400Y2900D02*
X4600D01*
Y3100D01*
X4400D02*
X4600D01*
X4400Y2900D02*
Y3100D01*
X5400Y2900D02*
X5600D01*
Y3100D01*
X5400D02*
X5600D01*
X5400Y2900D02*
Y3100D01*
X6400Y2900D02*
X6600D01*
Y3100D01*
X6400D02*
X6600D01*
X6400Y2900D02*
Y3100D01*
X7400Y2900D02*
X7600D01*
Y3100D01*
X7400D02*
X7600D01*
X7400Y2900D02*
Y3100D01*
X8400Y2900D02*
X8600D01*
Y3100D01*
X8400D02*
X8600D01*
X8400Y2900D02*
Y3100D01*
X9400Y2900D02*
X9600D01*
Y3100D01*
X9400D02*
X9600D01*
X9400Y2900D02*
Y3100D01*
X10400Y2900D02*
X10600D01*
Y3100D01*
X10400D02*
X10600D01*
X10400Y2900D02*
Y3100D01*
X11400Y2900D02*
X11600D01*
Y3100D01*
X11400D02*
X11600D01*
X11400Y2900D02*
Y3100D01*
X12400Y2900D02*
X12600D01*
Y3100D01*
X12400D02*
X12600D01*
X12400Y2900D02*
Y3100D01*
X13400Y2900D02*
X13600D01*
Y3100D01*
X13400D02*
X13600D01*
X13400Y2900D02*
Y3100D01*
X14400Y2900D02*
X14600D01*
Y3100D01*
X14400D02*
X14600D01*
X14400Y2900D02*
Y3100D01*
X15400Y2900D02*
X15600D01*
Y3100D01*
X15400D02*
X15600D01*
X15400Y2900D02*
Y3100D01*
X16400Y2900D02*
X16600D01*
Y3100D01*
X16400D02*
X16600D01*
X16400Y2900D02*
Y3100D01*
X17400Y2900D02*
X17600D01*
Y3100D01*
X17400D02*
X17600D01*
X17400Y2900D02*
Y3100D01*
X1896Y-1055D02*
X1996Y-855D01*
X1796D02*
X1996D01*
X1796D02*
X1896Y-1055D01*
Y855D02*
X1996Y1055D01*
X1796D02*
X1996D01*
X1796D02*
X1896Y855D01*
X17400Y-3100D02*
X17600D01*
Y-2900D01*
X17400D02*
X17600D01*
X17400Y-3100D02*
Y-2900D01*
X16400Y-3100D02*
X16600D01*
Y-2900D01*
X16400D02*
X16600D01*
X16400Y-3100D02*
Y-2900D01*
X15400Y-3100D02*
X15600D01*
Y-2900D01*
X15400D02*
X15600D01*
X15400Y-3100D02*
Y-2900D01*
X14400Y-3100D02*
X14600D01*
Y-2900D01*
X14400D02*
X14600D01*
X14400Y-3100D02*
Y-2900D01*
X13400Y-3100D02*
X13600D01*
Y-2900D01*
X13400D02*
X13600D01*
X13400Y-3100D02*
Y-2900D01*
X12400Y-3100D02*
X12600D01*
Y-2900D01*
X12400D02*
X12600D01*
X12400Y-3100D02*
Y-2900D01*
X11400Y-3100D02*
X11600D01*
Y-2900D01*
X11400D02*
X11600D01*
X11400Y-3100D02*
Y-2900D01*
X10400Y-3100D02*
X10600D01*
Y-2900D01*
X10400D02*
X10600D01*
X10400Y-3100D02*
Y-2900D01*
X9400Y-3100D02*
X9600D01*
Y-2900D01*
X9400D02*
X9600D01*
X9400Y-3100D02*
Y-2900D01*
X8400Y-3100D02*
X8600D01*
Y-2900D01*
X8400D02*
X8600D01*
X8400Y-3100D02*
Y-2900D01*
X7400Y-3100D02*
X7600D01*
Y-2900D01*
X7400D02*
X7600D01*
X7400Y-3100D02*
Y-2900D01*
X6400Y-3100D02*
X6600D01*
Y-2900D01*
X6400D02*
X6600D01*
X6400Y-3100D02*
Y-2900D01*
X5400Y-3100D02*
X5600D01*
Y-2900D01*
X5400D02*
X5600D01*
X5400Y-3100D02*
Y-2900D01*
X4400Y-3100D02*
X4600D01*
Y-2900D01*
X4400D02*
X4600D01*
X4400Y-3100D02*
Y-2900D01*
X3400Y-3100D02*
X3600D01*
Y-2900D01*
X3400D02*
X3600D01*
X3400Y-3100D02*
Y-2900D01*
X2400Y-3100D02*
X2600D01*
Y-2900D01*
X2400D02*
X2600D01*
X2400Y-3100D02*
Y-2900D01*
X1400Y-3100D02*
X1600D01*
Y-2900D01*
X1400D02*
X1600D01*
X1400Y-3100D02*
Y-2900D01*
X400Y-3100D02*
X600D01*
Y-2900D01*
X400D02*
X600D01*
X400Y-3100D02*
Y-2900D01*
D97*
X73698Y27020D02*
Y27617D01*
X73997D01*
X74096Y27517D01*
Y27318D01*
X73997Y27219D01*
X73698D01*
X73897D02*
X74096Y27020D01*
X74395D02*
X74594D01*
X74694Y27119D01*
Y27318D01*
X74594Y27418D01*
X74395D01*
X74295Y27318D01*
Y27119D01*
X74395Y27020D01*
X74893Y27418D02*
Y27119D01*
X74992Y27020D01*
X75291D01*
Y27418D01*
X75590Y27517D02*
Y27418D01*
X75490D01*
X75689D01*
X75590D01*
Y27119D01*
X75689Y27020D01*
X76287D02*
X76088D01*
X75988Y27119D01*
Y27318D01*
X76088Y27418D01*
X76287D01*
X76386Y27318D01*
Y27219D01*
X75988D01*
X76984Y27617D02*
Y27020D01*
X76685D01*
X76586Y27119D01*
Y27318D01*
X76685Y27418D01*
X76984D01*
X77780Y27020D02*
Y27617D01*
X78079D01*
X78179Y27517D01*
Y27318D01*
X78079Y27219D01*
X77780D01*
X78477Y27418D02*
X78677D01*
X78776Y27318D01*
Y27020D01*
X78477D01*
X78378Y27119D01*
X78477Y27219D01*
X78776D01*
X79075Y27517D02*
Y27418D01*
X78975D01*
X79174D01*
X79075D01*
Y27119D01*
X79174Y27020D01*
X79473Y27617D02*
Y27020D01*
Y27318D01*
X79573Y27418D01*
X79772D01*
X79871Y27318D01*
Y27020D01*
X80668Y27617D02*
Y27020D01*
X81066D01*
X81564D02*
X81365D01*
X81265Y27119D01*
Y27318D01*
X81365Y27418D01*
X81564D01*
X81664Y27318D01*
Y27219D01*
X81265D01*
X81863Y27020D02*
Y27418D01*
X82162D01*
X82261Y27318D01*
Y27020D01*
X82660Y26820D02*
X82759D01*
X82859Y26920D01*
Y27418D01*
X82560D01*
X82460Y27318D01*
Y27119D01*
X82560Y27020D01*
X82859D01*
X83157Y27517D02*
Y27418D01*
X83058D01*
X83257D01*
X83157D01*
Y27119D01*
X83257Y27020D01*
X83556Y27617D02*
Y27020D01*
Y27318D01*
X83655Y27418D01*
X83854D01*
X83954Y27318D01*
Y27020D01*
X64619Y27617D02*
Y27020D01*
Y27318D01*
X65017D01*
Y27617D01*
Y27020D01*
X65316D02*
X65515D01*
X65615Y27119D01*
Y27318D01*
X65515Y27418D01*
X65316D01*
X65216Y27318D01*
Y27119D01*
X65316Y27020D01*
X65814D02*
X66013D01*
X65913D01*
Y27617D01*
X65814D01*
X66610Y27020D02*
X66411D01*
X66312Y27119D01*
Y27318D01*
X66411Y27418D01*
X66610D01*
X66710Y27318D01*
Y27219D01*
X66312D01*
X67507Y27617D02*
Y27020D01*
X67905D01*
X68403D02*
X68204D01*
X68104Y27119D01*
Y27318D01*
X68204Y27418D01*
X68403D01*
X68502Y27318D01*
Y27219D01*
X68104D01*
X68702Y27020D02*
Y27418D01*
X69000D01*
X69100Y27318D01*
Y27020D01*
X69498Y26820D02*
X69598D01*
X69697Y26920D01*
Y27418D01*
X69399D01*
X69299Y27318D01*
Y27119D01*
X69399Y27020D01*
X69697D01*
X69996Y27517D02*
Y27418D01*
X69896D01*
X70096D01*
X69996D01*
Y27119D01*
X70096Y27020D01*
X70394Y27617D02*
Y27020D01*
Y27318D01*
X70494Y27418D01*
X70693D01*
X70793Y27318D01*
Y27020D01*
X54710Y27617D02*
X55109D01*
X54909D01*
Y27020D01*
X55606D02*
X55407D01*
X55308Y27119D01*
Y27318D01*
X55407Y27418D01*
X55606D01*
X55706Y27318D01*
Y27219D01*
X55308D01*
X55905Y27020D02*
Y27418D01*
X56005D01*
X56104Y27318D01*
Y27020D01*
Y27318D01*
X56204Y27418D01*
X56304Y27318D01*
Y27020D01*
X56503Y26820D02*
Y27418D01*
X56801D01*
X56901Y27318D01*
Y27119D01*
X56801Y27020D01*
X56503D01*
X57100D02*
X57299D01*
X57200D01*
Y27617D01*
X57100D01*
X57698Y27418D02*
X57897D01*
X57996Y27318D01*
Y27020D01*
X57698D01*
X57598Y27119D01*
X57698Y27219D01*
X57996D01*
X58295Y27517D02*
Y27418D01*
X58195D01*
X58395D01*
X58295D01*
Y27119D01*
X58395Y27020D01*
X58992D02*
X58793D01*
X58693Y27119D01*
Y27318D01*
X58793Y27418D01*
X58992D01*
X59092Y27318D01*
Y27219D01*
X58693D01*
X48465Y27020D02*
Y27617D01*
X48764D01*
X48864Y27517D01*
Y27318D01*
X48764Y27219D01*
X48465D01*
X49162Y27418D02*
X49362D01*
X49461Y27318D01*
Y27020D01*
X49162D01*
X49063Y27119D01*
X49162Y27219D01*
X49461D01*
X50059Y27617D02*
Y27020D01*
X49760D01*
X49660Y27119D01*
Y27318D01*
X49760Y27418D01*
X50059D01*
X51254Y27517D02*
X51154Y27617D01*
X50955D01*
X50855Y27517D01*
Y27418D01*
X50955Y27318D01*
X51154D01*
X51254Y27219D01*
Y27119D01*
X51154Y27020D01*
X50955D01*
X50855Y27119D01*
X51453Y27617D02*
Y27020D01*
Y27318D01*
X51552Y27418D01*
X51751D01*
X51851Y27318D01*
Y27020D01*
X52150Y27418D02*
X52349D01*
X52448Y27318D01*
Y27020D01*
X52150D01*
X52050Y27119D01*
X52150Y27219D01*
X52448D01*
X52648Y26820D02*
Y27418D01*
X52946D01*
X53046Y27318D01*
Y27119D01*
X52946Y27020D01*
X52648D01*
X53544D02*
X53345D01*
X53245Y27119D01*
Y27318D01*
X53345Y27418D01*
X53544D01*
X53643Y27318D01*
Y27219D01*
X53245D01*
X43515Y27617D02*
Y27219D01*
X43714Y27020D01*
X43913Y27219D01*
Y27617D01*
X44113Y27020D02*
X44312D01*
X44212D01*
Y27418D01*
X44113D01*
X44710D02*
X44909D01*
X45009Y27318D01*
Y27020D01*
X44710D01*
X44610Y27119D01*
X44710Y27219D01*
X45009D01*
X45208Y27020D02*
X45606Y27418D01*
X45805Y27020D02*
Y27617D01*
X46104D01*
X46204Y27517D01*
Y27318D01*
X46104Y27219D01*
X45805D01*
X46502Y27418D02*
X46701D01*
X46801Y27318D01*
Y27020D01*
X46502D01*
X46403Y27119D01*
X46502Y27219D01*
X46801D01*
X47398Y27617D02*
Y27020D01*
X47100D01*
X47000Y27119D01*
Y27318D01*
X47100Y27418D01*
X47398D01*
X29126Y27617D02*
Y27020D01*
X29424D01*
X29524Y27119D01*
Y27517D01*
X29424Y27617D01*
X29126D01*
X29723Y27418D02*
Y27020D01*
Y27219D01*
X29823Y27318D01*
X29922Y27418D01*
X30022D01*
X30320Y27020D02*
X30520D01*
X30420D01*
Y27418D01*
X30320D01*
X30818Y27020D02*
X31017D01*
X30918D01*
Y27617D01*
X30818D01*
X31316Y27020D02*
X31515D01*
X31416D01*
Y27617D01*
X31316D01*
X32412D02*
Y27020D01*
X32810D01*
X33109Y27418D02*
X33308D01*
X33407Y27318D01*
Y27020D01*
X33109D01*
X33009Y27119D01*
X33109Y27219D01*
X33407D01*
X33606Y27418D02*
Y27119D01*
X33706Y27020D01*
X34005D01*
Y26920D01*
X33905Y26820D01*
X33806D01*
X34005Y27020D02*
Y27418D01*
X34503Y27020D02*
X34303D01*
X34204Y27119D01*
Y27318D01*
X34303Y27418D01*
X34503D01*
X34602Y27318D01*
Y27219D01*
X34204D01*
X34801Y27418D02*
Y27020D01*
Y27219D01*
X34901Y27318D01*
X35000Y27418D01*
X35100D01*
X35996Y27020D02*
Y27617D01*
X36295D01*
X36394Y27517D01*
Y27318D01*
X36295Y27219D01*
X35996D01*
X36693Y27418D02*
X36892D01*
X36992Y27318D01*
Y27020D01*
X36693D01*
X36594Y27119D01*
X36693Y27219D01*
X36992D01*
X37191Y27020D02*
X37390D01*
X37291D01*
Y27418D01*
X37191D01*
X37689D02*
Y27020D01*
Y27219D01*
X37788Y27318D01*
X37888Y27418D01*
X37988D01*
X22980Y27617D02*
Y27020D01*
Y27318D01*
X23379D01*
Y27617D01*
Y27020D01*
X23677D02*
X23876D01*
X23976Y27119D01*
Y27318D01*
X23876Y27418D01*
X23677D01*
X23578Y27318D01*
Y27119D01*
X23677Y27020D01*
X24175D02*
X24374D01*
X24275D01*
Y27617D01*
X24175D01*
X24972Y27020D02*
X24773D01*
X24673Y27119D01*
Y27318D01*
X24773Y27418D01*
X24972D01*
X25071Y27318D01*
Y27219D01*
X24673D01*
X25868Y27617D02*
X26266D01*
X26067D01*
Y27020D01*
X26465Y27418D02*
Y27119D01*
X26565Y27020D01*
X26864D01*
Y26920D01*
X26764Y26820D01*
X26665D01*
X26864Y27020D02*
Y27418D01*
X27063Y26820D02*
Y27418D01*
X27362D01*
X27461Y27318D01*
Y27119D01*
X27362Y27020D01*
X27063D01*
X27959D02*
X27760D01*
X27660Y27119D01*
Y27318D01*
X27760Y27418D01*
X27959D01*
X28059Y27318D01*
Y27219D01*
X27660D01*
X18727Y27020D02*
Y27617D01*
X19026D01*
X19125Y27517D01*
Y27318D01*
X19026Y27219D01*
X18727D01*
X19324Y27020D02*
X19523D01*
X19424D01*
Y27617D01*
X19324D01*
X19922Y27418D02*
X20121D01*
X20220Y27318D01*
Y27020D01*
X19922D01*
X19822Y27119D01*
X19922Y27219D01*
X20220D01*
X20519Y27517D02*
Y27418D01*
X20420D01*
X20619D01*
X20519D01*
Y27119D01*
X20619Y27020D01*
X21216D02*
X21017D01*
X20918Y27119D01*
Y27318D01*
X21017Y27418D01*
X21216D01*
X21316Y27318D01*
Y27219D01*
X20918D01*
X21913Y27617D02*
Y27020D01*
X21615D01*
X21515Y27119D01*
Y27318D01*
X21615Y27418D01*
X21913D01*
X9565Y27617D02*
Y27020D01*
Y27318D01*
X9963D01*
Y27617D01*
Y27020D01*
X10262D02*
X10461D01*
X10561Y27119D01*
Y27318D01*
X10461Y27418D01*
X10262D01*
X10162Y27318D01*
Y27119D01*
X10262Y27020D01*
X10760D02*
X10959D01*
X10859D01*
Y27617D01*
X10760D01*
X11557Y27020D02*
X11357D01*
X11258Y27119D01*
Y27318D01*
X11357Y27418D01*
X11557D01*
X11656Y27318D01*
Y27219D01*
X11258D01*
X12851Y27517D02*
X12751Y27617D01*
X12552D01*
X12453Y27517D01*
Y27418D01*
X12552Y27318D01*
X12751D01*
X12851Y27219D01*
Y27119D01*
X12751Y27020D01*
X12552D01*
X12453Y27119D01*
X13050Y27020D02*
X13249D01*
X13150D01*
Y27418D01*
X13050D01*
X13548D02*
X13946D01*
X13548Y27020D01*
X13946D01*
X14444D02*
X14245D01*
X14145Y27119D01*
Y27318D01*
X14245Y27418D01*
X14444D01*
X14544Y27318D01*
Y27219D01*
X14145D01*
X5033Y27517D02*
X4934Y27617D01*
X4735D01*
X4635Y27517D01*
Y27119D01*
X4735Y27020D01*
X4934D01*
X5033Y27119D01*
X5332Y27020D02*
X5531D01*
X5631Y27119D01*
Y27318D01*
X5531Y27418D01*
X5332D01*
X5232Y27318D01*
Y27119D01*
X5332Y27020D01*
X5830Y27418D02*
Y27119D01*
X5929Y27020D01*
X6228D01*
Y27418D01*
X6427Y27020D02*
Y27418D01*
X6726D01*
X6826Y27318D01*
Y27020D01*
X7124Y27517D02*
Y27418D01*
X7025D01*
X7224D01*
X7124D01*
Y27119D01*
X7224Y27020D01*
X780Y27517D02*
X680Y27617D01*
X481D01*
X382Y27517D01*
Y27418D01*
X481Y27318D01*
X680D01*
X780Y27219D01*
Y27119D01*
X680Y27020D01*
X481D01*
X382Y27119D01*
X979Y27418D02*
Y27119D01*
X1079Y27020D01*
X1377D01*
Y26920D01*
X1278Y26820D01*
X1178D01*
X1377Y27020D02*
Y27418D01*
X1577Y27020D02*
Y27418D01*
X1676D01*
X1776Y27318D01*
Y27020D01*
Y27318D01*
X1875Y27418D01*
X1975Y27318D01*
Y27020D01*
X2174Y27617D02*
Y27020D01*
X2473D01*
X2572Y27119D01*
Y27219D01*
Y27318D01*
X2473Y27418D01*
X2174D01*
X2871Y27020D02*
X3070D01*
X3170Y27119D01*
Y27318D01*
X3070Y27418D01*
X2871D01*
X2771Y27318D01*
Y27119D01*
X2871Y27020D01*
X3369D02*
X3568D01*
X3468D01*
Y27617D01*
X3369D01*
D98*
X9001Y19191D02*
Y18693D01*
Y18942D01*
X9333D01*
Y19191D01*
Y18693D01*
X9582D02*
X9748D01*
X9831Y18776D01*
Y18942D01*
X9748Y19025D01*
X9582D01*
X9499Y18942D01*
Y18776D01*
X9582Y18693D01*
X9997D02*
X10163D01*
X10080D01*
Y19191D01*
X9997D01*
X10661Y18693D02*
X10495D01*
X10412Y18776D01*
Y18942D01*
X10495Y19025D01*
X10661D01*
X10744Y18942D01*
Y18859D01*
X10412D01*
X11407Y19191D02*
Y18693D01*
X11739D01*
X12154D02*
X11988D01*
X11905Y18776D01*
Y18942D01*
X11988Y19025D01*
X12154D01*
X12237Y18942D01*
Y18859D01*
X11905D01*
X12403Y18693D02*
Y19025D01*
X12652D01*
X12735Y18942D01*
Y18693D01*
X13067Y18527D02*
X13150D01*
X13233Y18610D01*
Y19025D01*
X12984D01*
X12901Y18942D01*
Y18776D01*
X12984Y18693D01*
X13233D01*
X13482Y19108D02*
Y19025D01*
X13399D01*
X13565D01*
X13482D01*
Y18776D01*
X13565Y18693D01*
X13814Y19191D02*
Y18693D01*
Y18942D01*
X13897Y19025D01*
X14063D01*
X14146Y18942D01*
Y18693D01*
X9001Y19557D02*
Y20055D01*
X9250D01*
X9333Y19972D01*
Y19806D01*
X9250Y19723D01*
X9001D01*
X9167D02*
X9333Y19557D01*
X9582D02*
X9748D01*
X9831Y19640D01*
Y19806D01*
X9748Y19889D01*
X9582D01*
X9499Y19806D01*
Y19640D01*
X9582Y19557D01*
X9997Y19889D02*
Y19640D01*
X10080Y19557D01*
X10329D01*
Y19889D01*
X10578Y19972D02*
Y19889D01*
X10495D01*
X10661D01*
X10578D01*
Y19640D01*
X10661Y19557D01*
X11158D02*
X10993D01*
X10910Y19640D01*
Y19806D01*
X10993Y19889D01*
X11158D01*
X11241Y19806D01*
Y19723D01*
X10910D01*
X11739Y20055D02*
Y19557D01*
X11490D01*
X11407Y19640D01*
Y19806D01*
X11490Y19889D01*
X11739D01*
X12403Y19557D02*
Y20055D01*
X12652D01*
X12735Y19972D01*
Y19806D01*
X12652Y19723D01*
X12403D01*
X12984Y19889D02*
X13150D01*
X13233Y19806D01*
Y19557D01*
X12984D01*
X12901Y19640D01*
X12984Y19723D01*
X13233D01*
X13482Y19972D02*
Y19889D01*
X13399D01*
X13565D01*
X13482D01*
Y19640D01*
X13565Y19557D01*
X13814Y20055D02*
Y19557D01*
Y19806D01*
X13897Y19889D01*
X14063D01*
X14146Y19806D01*
Y19557D01*
X14810Y20055D02*
Y19557D01*
X15141D01*
X15556D02*
X15390D01*
X15307Y19640D01*
Y19806D01*
X15390Y19889D01*
X15556D01*
X15639Y19806D01*
Y19723D01*
X15307D01*
X15805Y19557D02*
Y19889D01*
X16054D01*
X16137Y19806D01*
Y19557D01*
X16469Y19391D02*
X16552D01*
X16635Y19474D01*
Y19889D01*
X16386D01*
X16303Y19806D01*
Y19640D01*
X16386Y19557D01*
X16635D01*
X16884Y19972D02*
Y19889D01*
X16801D01*
X16967D01*
X16884D01*
Y19640D01*
X16967Y19557D01*
X17216Y20055D02*
Y19557D01*
Y19806D01*
X17299Y19889D01*
X17465D01*
X17548Y19806D01*
Y19557D01*
X714Y19972D02*
X631Y20055D01*
X465D01*
X382Y19972D01*
Y19889D01*
X465Y19806D01*
X631D01*
X714Y19723D01*
Y19640D01*
X631Y19557D01*
X465D01*
X382Y19640D01*
X880Y19557D02*
X1045D01*
X962D01*
Y20055D01*
X880D01*
X1377Y19557D02*
X1543D01*
X1626Y19640D01*
Y19806D01*
X1543Y19889D01*
X1377D01*
X1294Y19806D01*
Y19640D01*
X1377Y19557D01*
X1875Y19972D02*
Y19889D01*
X1792D01*
X1958D01*
X1875D01*
Y19640D01*
X1958Y19557D01*
X3037Y20055D02*
Y19557D01*
X2788D01*
X2705Y19640D01*
Y19806D01*
X2788Y19889D01*
X3037D01*
X3452Y19557D02*
X3286D01*
X3203Y19640D01*
Y19806D01*
X3286Y19889D01*
X3452D01*
X3535Y19806D01*
Y19723D01*
X3203D01*
X3784Y19557D02*
Y19972D01*
Y19806D01*
X3701D01*
X3867D01*
X3784D01*
Y19972D01*
X3867Y20055D01*
X4116Y19557D02*
X4282D01*
X4199D01*
Y19889D01*
X4116D01*
X4531Y19557D02*
Y19889D01*
X4779D01*
X4862Y19806D01*
Y19557D01*
X5028D02*
X5194D01*
X5111D01*
Y19889D01*
X5028D01*
X5526Y19972D02*
Y19889D01*
X5443D01*
X5609D01*
X5526D01*
Y19640D01*
X5609Y19557D01*
X5858D02*
X6024D01*
X5941D01*
Y19889D01*
X5858D01*
X6356Y19557D02*
X6522D01*
X6605Y19640D01*
Y19806D01*
X6522Y19889D01*
X6356D01*
X6273Y19806D01*
Y19640D01*
X6356Y19557D01*
X6771D02*
Y19889D01*
X7020D01*
X7103Y19806D01*
Y19557D01*
X7269D02*
X7518D01*
X7601Y19640D01*
X7518Y19723D01*
X7352D01*
X7269Y19806D01*
X7352Y19889D01*
X7601D01*
X8265D02*
X8348D01*
Y19806D01*
X8265D01*
Y19889D01*
Y19640D02*
X8348D01*
Y19557D01*
X8265D01*
Y19640D01*
M02*
