G04 Layer_Color=8388736*
%FSLAX24Y24*%
%MOIN*%
G70*
G01*
G75*
%ADD40C,0.0240*%
%ADD63R,0.0946X0.0946*%
%ADD64O,0.0395X0.0218*%
%ADD65O,0.0218X0.0395*%
%ADD66R,0.0218X0.0395*%
%ADD67R,0.0316X0.0493*%
%ADD68R,0.0434X0.0434*%
%ADD69R,0.0513X0.0434*%
%ADD70R,0.0316X0.0277*%
%ADD71R,0.0395X0.0178*%
%ADD72R,0.0938X0.0710*%
%ADD73R,0.0316X0.0474*%
%ADD74R,0.0474X0.0316*%
%ADD75R,0.1261X0.1419*%
%ADD76R,0.0671X0.0474*%
%ADD77R,0.1064X0.0641*%
%ADD78R,0.0769X0.0237*%
%ADD79R,0.0380X0.0380*%
%ADD80R,0.0395X0.0395*%
%ADD81R,0.0297X0.0297*%
%ADD82R,0.0332X0.0293*%
%ADD83R,0.0293X0.0332*%
%ADD84C,0.0159*%
%ADD85R,0.0297X0.0297*%
%ADD86R,0.0380X0.0380*%
%ADD87R,0.0655X0.0867*%
%ADD88C,0.0789*%
%ADD89O,0.0749X0.0552*%
%ADD90O,0.0631X0.0474*%
G36*
X1515Y-777D02*
X1520Y-778D01*
X1525Y-780D01*
X1530Y-782D01*
X1534Y-785D01*
X1538Y-789D01*
X1542Y-793D01*
X1545Y-797D01*
X1547Y-802D01*
X1549Y-807D01*
X1550Y-812D01*
X1550Y-817D01*
Y-1535D01*
X1550Y-1541D01*
X1549Y-1546D01*
X1547Y-1551D01*
X1545Y-1555D01*
X1542Y-1560D01*
X1538Y-1564D01*
X1534Y-1567D01*
X1530Y-1570D01*
X1525Y-1572D01*
X1520Y-1574D01*
X1515Y-1575D01*
X1510Y-1576D01*
X1234D01*
X1229Y-1575D01*
X1224Y-1574D01*
X1219Y-1572D01*
X1214Y-1570D01*
X1210Y-1567D01*
X1206Y-1564D01*
X1202Y-1560D01*
X1200Y-1555D01*
X1197Y-1551D01*
X1196Y-1546D01*
X1195Y-1541D01*
X1194Y-1535D01*
Y-1369D01*
X427D01*
X426Y-1369D01*
X425Y-1369D01*
X410Y-1368D01*
X409Y-1368D01*
X408Y-1368D01*
X393Y-1366D01*
X392Y-1366D01*
X392Y-1366D01*
X390Y-1366D01*
X387Y-1365D01*
X387Y-1365D01*
X387Y-1365D01*
X380Y-1364D01*
X379Y-1363D01*
X378Y-1363D01*
X371Y-1361D01*
X371Y-1361D01*
X357Y-1356D01*
X356Y-1356D01*
X355Y-1356D01*
X354Y-1355D01*
X352Y-1355D01*
X351Y-1354D01*
X351Y-1354D01*
X336Y-1346D01*
X334Y-1346D01*
X333Y-1345D01*
X319Y-1337D01*
X317Y-1336D01*
X316Y-1334D01*
X303Y-1325D01*
X302Y-1324D01*
X301Y-1323D01*
X289Y-1313D01*
X289Y-1313D01*
X289Y-1313D01*
X287Y-1311D01*
X285Y-1309D01*
X285Y-1309D01*
X285Y-1309D01*
X275Y-1297D01*
X274Y-1296D01*
X273Y-1295D01*
X263Y-1282D01*
X263Y-1282D01*
X263Y-1281D01*
X261Y-1279D01*
X260Y-1277D01*
X260Y-1277D01*
X260Y-1277D01*
X252Y-1263D01*
X251Y-1262D01*
X251Y-1261D01*
X244Y-1246D01*
X244Y-1246D01*
X244Y-1246D01*
X243Y-1244D01*
X242Y-1241D01*
X242Y-1241D01*
X242Y-1241D01*
X237Y-1225D01*
X236Y-1222D01*
X235Y-1220D01*
X233Y-1208D01*
X233Y-1207D01*
X233Y-1206D01*
X231Y-1191D01*
X231Y-1190D01*
X230Y-1188D01*
X230Y-1173D01*
X230Y-1172D01*
X230Y-1171D01*
Y-974D01*
X230Y-973D01*
X230Y-973D01*
X230Y-956D01*
X231Y-953D01*
X231Y-951D01*
X233Y-935D01*
X234Y-933D01*
X234Y-931D01*
X238Y-915D01*
X239Y-913D01*
X240Y-911D01*
X246Y-896D01*
X247Y-894D01*
X248Y-891D01*
X254Y-879D01*
X255Y-878D01*
X255Y-878D01*
X262Y-865D01*
X264Y-863D01*
X265Y-861D01*
X274Y-849D01*
X275Y-848D01*
X275Y-848D01*
X276Y-846D01*
X278Y-845D01*
X278Y-844D01*
X278Y-844D01*
X289Y-834D01*
X289Y-833D01*
X290Y-833D01*
X301Y-823D01*
X301Y-823D01*
X301Y-822D01*
X303Y-821D01*
X305Y-819D01*
X305Y-819D01*
X305Y-819D01*
X317Y-811D01*
X318Y-810D01*
X318Y-810D01*
X332Y-801D01*
X332Y-801D01*
X333Y-801D01*
X335Y-800D01*
X337Y-799D01*
X337Y-799D01*
X337Y-798D01*
X351Y-792D01*
X353Y-792D01*
X354Y-791D01*
X366Y-786D01*
X368Y-786D01*
X369Y-786D01*
X376Y-784D01*
X377Y-783D01*
X378Y-783D01*
X385Y-781D01*
X385Y-781D01*
X386Y-781D01*
X394Y-780D01*
X394Y-780D01*
X394Y-780D01*
X402Y-778D01*
X403Y-778D01*
X403Y-778D01*
X405Y-778D01*
X408Y-777D01*
X408Y-777D01*
X408Y-777D01*
X417Y-777D01*
X418Y-777D01*
X419Y-777D01*
X1510D01*
X1515Y-777D01*
D02*
G37*
G36*
X1515Y1575D02*
X1520Y1574D01*
X1525Y1572D01*
X1530Y1570D01*
X1534Y1567D01*
X1538Y1564D01*
X1542Y1560D01*
X1545Y1555D01*
X1547Y1551D01*
X1549Y1546D01*
X1550Y1541D01*
X1550Y1535D01*
Y817D01*
X1550Y812D01*
X1549Y807D01*
X1547Y802D01*
X1545Y797D01*
X1542Y793D01*
X1538Y789D01*
X1534Y785D01*
X1530Y782D01*
X1525Y780D01*
X1520Y778D01*
X1515Y777D01*
X1510Y777D01*
X419D01*
X418Y777D01*
X417Y777D01*
X408Y777D01*
X408Y777D01*
X408Y777D01*
X405Y778D01*
X403Y778D01*
X403Y778D01*
X402Y778D01*
X394Y780D01*
X394Y780D01*
X394Y780D01*
X386Y781D01*
X385Y781D01*
X385Y781D01*
X378Y783D01*
X377Y783D01*
X376Y784D01*
X369Y786D01*
X368Y786D01*
X366Y786D01*
X354Y791D01*
X353Y792D01*
X351Y792D01*
X337Y798D01*
X337Y799D01*
X337Y799D01*
X335Y800D01*
X333Y801D01*
X332Y801D01*
X332Y801D01*
X318Y810D01*
X318Y810D01*
X317Y811D01*
X305Y819D01*
X305Y819D01*
X305Y819D01*
X303Y821D01*
X301Y822D01*
X301Y823D01*
X301Y823D01*
X290Y833D01*
X289Y833D01*
X289Y834D01*
X278Y844D01*
X278Y844D01*
X278Y845D01*
X276Y846D01*
X275Y848D01*
X275Y848D01*
X274Y849D01*
X265Y861D01*
X264Y863D01*
X262Y865D01*
X255Y878D01*
X255Y878D01*
X254Y879D01*
X248Y891D01*
X247Y894D01*
X246Y896D01*
X240Y911D01*
X239Y913D01*
X238Y915D01*
X234Y931D01*
X234Y933D01*
X233Y935D01*
X231Y951D01*
X231Y953D01*
X230Y956D01*
X230Y973D01*
X230Y973D01*
X230Y974D01*
Y1171D01*
X230Y1172D01*
X230Y1173D01*
X230Y1188D01*
X231Y1190D01*
X231Y1191D01*
X233Y1206D01*
X233Y1207D01*
X233Y1208D01*
X235Y1220D01*
X236Y1222D01*
X237Y1225D01*
X242Y1241D01*
X242Y1241D01*
X242Y1241D01*
X243Y1244D01*
X244Y1246D01*
X244Y1246D01*
X244Y1246D01*
X251Y1261D01*
X251Y1262D01*
X252Y1263D01*
X260Y1277D01*
X260Y1277D01*
X260Y1277D01*
X261Y1279D01*
X263Y1281D01*
X263Y1282D01*
X263Y1282D01*
X273Y1295D01*
X274Y1296D01*
X275Y1297D01*
X285Y1309D01*
X285Y1309D01*
X285Y1309D01*
X287Y1311D01*
X289Y1313D01*
X289Y1313D01*
X289Y1313D01*
X301Y1323D01*
X302Y1324D01*
X303Y1325D01*
X316Y1334D01*
X317Y1336D01*
X319Y1337D01*
X333Y1345D01*
X334Y1346D01*
X336Y1346D01*
X351Y1354D01*
X351Y1354D01*
X352Y1355D01*
X354Y1355D01*
X355Y1356D01*
X356Y1356D01*
X357Y1356D01*
X371Y1361D01*
X371Y1361D01*
X378Y1363D01*
X379Y1363D01*
X380Y1364D01*
X387Y1365D01*
X387Y1365D01*
X387Y1365D01*
X390Y1366D01*
X392Y1366D01*
X392Y1366D01*
X393Y1366D01*
X408Y1368D01*
X409Y1368D01*
X410Y1368D01*
X425Y1369D01*
X426Y1369D01*
X427Y1369D01*
X1194D01*
Y1535D01*
X1195Y1541D01*
X1196Y1546D01*
X1197Y1551D01*
X1200Y1555D01*
X1202Y1560D01*
X1206Y1564D01*
X1210Y1567D01*
X1214Y1570D01*
X1219Y1572D01*
X1224Y1574D01*
X1229Y1575D01*
X1234Y1576D01*
X1510D01*
X1515Y1575D01*
D02*
G37*
D40*
X8421Y379D02*
G03*
X8421Y379I-110J0D01*
G01*
X8399D02*
G03*
X8399Y379I-110J0D01*
G01*
D63*
X5275Y0D02*
D03*
D64*
X6070Y384D02*
D03*
Y128D02*
D03*
Y-128D02*
D03*
Y-384D02*
D03*
X4480Y-386D02*
D03*
Y-130D02*
D03*
Y126D02*
D03*
Y382D02*
D03*
D65*
X5659Y-795D02*
D03*
X5403D02*
D03*
X5147D02*
D03*
X4891D02*
D03*
Y795D02*
D03*
X5147D02*
D03*
X5403D02*
D03*
D66*
X5659D02*
D03*
D67*
X8134Y1962D02*
D03*
X7760D02*
D03*
X7386D02*
D03*
Y918D02*
D03*
X8134D02*
D03*
D68*
X3550Y2230D02*
D03*
Y1480D02*
D03*
X16490Y-520D02*
D03*
Y230D02*
D03*
D69*
X4350Y1850D02*
D03*
X15690Y-140D02*
D03*
D70*
X3000Y200D02*
D03*
Y594D02*
D03*
X2550Y956D02*
D03*
Y1350D02*
D03*
X17110Y-164D02*
D03*
Y230D02*
D03*
X1900Y2300D02*
D03*
Y1906D02*
D03*
X3000Y-192D02*
D03*
Y-585D02*
D03*
D71*
X10433Y-1205D02*
D03*
Y-1402D02*
D03*
Y-1598D02*
D03*
Y-1795D02*
D03*
X11567Y-1205D02*
D03*
Y-1402D02*
D03*
Y-1598D02*
D03*
Y-1795D02*
D03*
D72*
X9500Y0D02*
D03*
X13122D02*
D03*
D73*
X21840Y-1575D02*
D03*
X21447D02*
D03*
X21053D02*
D03*
X20659D02*
D03*
X20266D02*
D03*
X19872D02*
D03*
X19478D02*
D03*
X19084D02*
D03*
X21644Y-1063D02*
D03*
X21250D02*
D03*
X20856D02*
D03*
X20462D02*
D03*
X20069D02*
D03*
X19675D02*
D03*
X19281D02*
D03*
X18888D02*
D03*
Y1063D02*
D03*
X19281D02*
D03*
X19675D02*
D03*
X20069D02*
D03*
X20462D02*
D03*
X20856D02*
D03*
X21250D02*
D03*
X21644D02*
D03*
X19084Y1575D02*
D03*
X19478D02*
D03*
X19872D02*
D03*
X20266D02*
D03*
X20659D02*
D03*
X21053D02*
D03*
X21447D02*
D03*
X21840D02*
D03*
D74*
X18947Y-591D02*
D03*
Y-197D02*
D03*
Y197D02*
D03*
Y591D02*
D03*
X18435Y-1181D02*
D03*
Y-787D02*
D03*
Y-394D02*
D03*
Y0D02*
D03*
Y394D02*
D03*
Y787D02*
D03*
Y1181D02*
D03*
D75*
X21368Y0D02*
D03*
X19951D02*
D03*
D76*
X22825Y1614D02*
D03*
X18494D02*
D03*
Y-1614D02*
D03*
X22825D02*
D03*
D77*
X604Y-379D02*
D03*
Y379D02*
D03*
D78*
X1815Y-512D02*
D03*
Y-256D02*
D03*
Y512D02*
D03*
Y256D02*
D03*
Y0D02*
D03*
D79*
X7290Y-1010D02*
D03*
X7840D02*
D03*
X20100Y2750D02*
D03*
X20650D02*
D03*
X9300Y1750D02*
D03*
X8750D02*
D03*
D80*
X11050Y1751D02*
D03*
X11641D02*
D03*
D81*
X12243Y-2250D02*
D03*
X12597D02*
D03*
X13393Y2230D02*
D03*
X13747D02*
D03*
X4077Y197D02*
D03*
X3723D02*
D03*
Y-192D02*
D03*
X4077D02*
D03*
X7383Y-1380D02*
D03*
X7737D02*
D03*
X7393Y430D02*
D03*
X7747D02*
D03*
Y70D02*
D03*
X7393D02*
D03*
Y-300D02*
D03*
X7747D02*
D03*
X11043Y1340D02*
D03*
X11397D02*
D03*
X9750Y-1250D02*
D03*
X9396D02*
D03*
X12597Y-1840D02*
D03*
X12243D02*
D03*
D82*
X20297Y2296D02*
D03*
X20659D02*
D03*
X5000Y-1500D02*
D03*
X5362D02*
D03*
X7389Y-640D02*
D03*
X7751D02*
D03*
X13750Y-1250D02*
D03*
X13388D02*
D03*
X9112Y1250D02*
D03*
X8750D02*
D03*
X12250Y-1250D02*
D03*
X12612D02*
D03*
D83*
X15950Y1339D02*
D03*
Y1701D02*
D03*
X15200Y319D02*
D03*
Y681D02*
D03*
X3390Y560D02*
D03*
Y198D02*
D03*
Y-189D02*
D03*
Y-551D02*
D03*
X5960Y2001D02*
D03*
Y1639D02*
D03*
D84*
X8433Y379D02*
D03*
X8167D02*
D03*
D85*
X6700Y1997D02*
D03*
Y1643D02*
D03*
X6320D02*
D03*
Y1997D02*
D03*
X5600Y2000D02*
D03*
Y1646D02*
D03*
D86*
X2550Y1800D02*
D03*
Y2350D02*
D03*
X3020Y1800D02*
D03*
Y1250D02*
D03*
D87*
X1896Y1142D02*
D03*
Y-1142D02*
D03*
D88*
X500Y-3000D02*
D03*
X1500D02*
D03*
X2500D02*
D03*
X3500D02*
D03*
X4500D02*
D03*
X5500D02*
D03*
X6500D02*
D03*
X7500D02*
D03*
X8500D02*
D03*
X9500D02*
D03*
X10500D02*
D03*
X11500D02*
D03*
X12500D02*
D03*
X13500D02*
D03*
X14500D02*
D03*
X15500D02*
D03*
X16500D02*
D03*
X17500D02*
D03*
Y3000D02*
D03*
X16500D02*
D03*
X15500D02*
D03*
X14500D02*
D03*
X13500D02*
D03*
X12500D02*
D03*
X11500D02*
D03*
X10500D02*
D03*
X9500D02*
D03*
X8500D02*
D03*
X7500D02*
D03*
X6500D02*
D03*
X5500D02*
D03*
X4500D02*
D03*
X3500D02*
D03*
X2500D02*
D03*
X1500D02*
D03*
X500D02*
D03*
D89*
X703Y1073D02*
D03*
Y-1073D02*
D03*
D90*
X1896Y955D02*
D03*
Y-955D02*
D03*
M02*
